<svg width="251" height="40" viewBox="0 0 251 40" fill="none" xmlns="http://www.w3.org/2000/svg">
<g clip-path="url(#clip0_443:20068)">
<path d="M163.011 1.49902V38.469H250.065V1.49902H163.011ZM186.516 26.199L185.212 17.357L182.604 26.199H181.045L178.437 17.357L177.26 25.27C177.228 25.5263 177.101 25.7505 176.942 25.9107C176.751 26.0709 176.529 26.167 176.242 26.167C175.956 26.167 175.733 26.0709 175.543 25.9107C175.352 25.7185 175.256 25.4942 175.256 25.2059C175.256 25.0778 175.256 24.9817 175.288 24.9176L176.974 14.9543C177.037 14.6019 177.197 14.3456 177.451 14.1213C177.705 13.9291 177.992 13.833 178.342 13.833C178.691 13.833 178.978 13.9291 179.2 14.1213C179.423 14.3136 179.582 14.5699 179.677 14.8582L181.84 22.3547L184.035 14.8582C184.13 14.5699 184.289 14.3136 184.48 14.1213C184.703 13.9291 184.989 13.833 185.339 13.833C185.657 13.833 185.975 13.9291 186.23 14.1213C186.484 14.3136 186.675 14.6019 186.707 14.9543L188.551 26.167H186.516V26.199ZM193.259 26.199H191.287V14.8261C191.287 14.3136 191.7 13.8651 192.209 13.8651H192.368C192.877 13.8651 193.291 14.2815 193.291 14.8261V26.199H193.259ZM202.069 26.199L197.966 21.8741V26.199H195.994V14.8582C195.994 14.3456 196.408 13.9291 196.917 13.9291H197.012C197.521 13.9291 197.934 14.3456 197.934 14.8582V18.1259L201.91 14.2175C202.165 13.9932 202.419 13.8651 202.705 13.8651C203.214 13.8651 203.628 14.2815 203.628 14.7941C203.628 15.0504 203.501 15.3387 203.31 15.5309L198.761 19.984L204.773 26.2311H202.069V26.199ZM212.406 26.199L208.303 21.8741V26.199H206.331V14.8582C206.331 14.3456 206.745 13.9291 207.254 13.9291H207.349C207.858 13.9291 208.272 14.3776 208.272 14.8582V18.1259L212.247 14.2175C212.502 13.9932 212.756 13.8651 213.043 13.8651C213.551 13.8651 213.965 14.2815 213.965 14.7621C213.965 15.0184 213.838 15.3067 213.647 15.4989L209.13 19.952L215.142 26.199H212.406ZM223.666 14.8902C223.666 15.4028 223.252 15.7872 222.744 15.7872H218.927C218.45 15.7872 218.45 15.7872 218.45 16.2037V19.2151H222.744V20.881H218.45V23.9245C218.45 24.3409 218.45 24.3409 218.927 24.3409H222.744C223.284 24.3409 223.666 24.7254 223.666 25.238V25.3661C223.666 25.8787 223.252 26.2631 222.744 26.2631H218.927C217.368 26.2631 216.509 25.4302 216.509 23.9565V16.2357C216.509 14.73 217.368 13.9291 218.927 13.9291H222.744C223.284 13.9291 223.666 14.3136 223.666 14.8261V14.8902ZM233.113 25.302C233.113 25.8146 232.699 26.199 232.19 26.199H228.819C227.26 26.199 226.401 25.3661 226.401 23.8924V14.7941C226.401 14.2815 226.815 13.8651 227.292 13.8651H227.451C227.96 13.8651 228.342 14.2815 228.342 14.7941V23.8924C228.342 24.3089 228.342 24.3089 228.819 24.3089H232.19C232.731 24.3089 233.113 24.6933 233.113 25.2059V25.302V25.302ZM237.82 26.199H235.848V14.8261C235.848 14.3136 236.261 13.8651 236.77 13.8651H236.929C237.438 13.8651 237.852 14.2815 237.852 14.8261V26.199H237.82Z" fill="white"/>
<path d="M34.3531 4.8308C34.1941 3.80564 33.6851 2.9727 32.89 2.36401C32.1266 1.78735 31.236 1.49902 30.25 1.49902C29.2322 1.49902 28.3734 1.78735 27.7055 2.39604C27.1012 2.94066 26.6241 3.6775 26.3696 4.57451L19.8493 26.8718L13.3925 4.57451C13.1063 3.6775 12.661 2.94066 12.0248 2.39604C11.3569 1.81939 10.4981 1.49902 9.48031 1.49902C8.4943 1.49902 7.60372 1.78735 6.84036 2.39604C6.077 3.00473 5.5999 3.80564 5.37725 4.86284L0.41542 34.5285C0.383614 34.7527 0.351807 35.0411 0.351807 35.4255C0.351807 36.2585 0.638066 36.9633 1.21059 37.5079C1.7513 38.0205 2.45104 38.2768 3.24621 38.2768C4.10499 38.2768 4.80473 38.0205 5.34545 37.5079C5.85435 37.0273 6.17242 36.3866 6.29964 35.5857L9.79837 11.9749L17.5592 38.2768H22.1711L29.9638 12.0069L33.8124 38.2768H39.9192L34.3531 4.8308Z" fill="white"/>
<path d="M51.1789 1.49902H50.7336C49.2387 1.49902 48.03 2.74845 48.03 4.31823V38.2447H53.8824V4.31823C53.8824 2.74845 52.6738 1.49902 51.1789 1.49902Z" fill="white"/>
<path d="M70.3581 19.6636L83.9395 6.40059C84.512 5.82394 84.8619 4.99098 84.8619 4.22211C84.8619 2.74844 83.5896 1.49902 82.0629 1.49902C81.2359 1.49902 80.4726 1.81939 79.7092 2.52419L67.8453 14.1854V4.51044C67.8453 2.97269 66.5731 1.69124 65.0464 1.69124H64.7919C63.2652 1.69124 61.9929 2.97269 61.9929 4.51044V38.2768H67.8453V25.4302L80.1227 38.2768H88.2016L70.3581 19.6636Z" fill="white"/>
<path d="M126.274 7.2015H137.597C139.188 7.2015 140.364 6.04818 140.364 4.54248V4.19007C140.364 2.65233 139.188 1.49902 137.597 1.49902H126.274C121.599 1.49902 119.022 3.93379 119.022 8.38684V31.3249C119.022 35.7779 121.599 38.2127 126.274 38.2127H137.597C139.188 38.2127 140.364 37.0594 140.364 35.5216V35.1692C140.364 33.6635 139.188 32.5102 137.597 32.5102H126.274C124.811 32.5102 124.811 32.5102 124.811 31.3249V22.2906H137.565V17.3891H124.811V8.41888C124.811 7.20149 124.811 7.2015 126.274 7.2015Z" fill="white"/>
<path d="M150.765 1.49902H150.32C148.825 1.49902 147.616 2.74845 147.616 4.31823V38.2447H153.469V4.31823C153.469 2.74845 152.26 1.49902 150.765 1.49902Z" fill="white"/>
<path d="M112.248 4.54248V4.19007C112.248 2.65233 111.071 1.49902 109.48 1.49902H102.483C102.451 1.49902 102.451 1.49902 102.419 1.49902C102.324 1.49902 102.228 1.49902 102.133 1.49902C93.1953 1.49902 90.1101 5.37542 90.1101 10.6935C90.1101 14.0893 91.3188 16.8765 95.7717 19.5355L102.101 23.3478C105.282 25.238 106.172 26.199 106.172 28.0892C106.172 30.9084 104.868 32.4782 100.606 32.4782H91.0961V38.2127H100.734C110.18 38.1486 113.17 32.9587 113.17 28.1212C113.17 24.3089 111.77 21.2014 106.491 18.254L100.734 14.9863C97.6165 13.2564 96.7895 12.2632 96.7895 10.6935C96.7895 8.51499 98.2844 7.26557 101.847 7.26557C102.038 7.26557 102.26 7.23353 102.483 7.2015H109.48C111.039 7.2015 112.248 6.04818 112.248 4.54248Z" fill="white"/>
</g>
<defs>
<clipPath id="clip0_443:20068">
<rect width="250" height="38.2883" fill="white" transform="translate(0.0981445 0.855835)"/>
</clipPath>
</defs>
</svg>
