<svg width="250" height="75" viewBox="0 0 250 75" fill="none" xmlns="http://www.w3.org/2000/svg">
<path d="M123.61 12.6499V30.1899V62.3499H137.71V41.5599L148.99 50.6599L160.27 41.5599V62.3499H174.37V30.1899V12.6499L148.99 32.4599L123.61 12.6499Z" fill="white"/>
<path d="M211.03 36.0499L228.59 12.6499H211.67L194.8 35.9699V12.6499H180.7V62.3499H194.8V36.1099L213.65 62.3499H230.57L211.03 36.0499Z" fill="white"/>
<path d="M70.7599 56.6099L55.6699 36.1599L72.9999 12.6499H56.0799L47.2099 24.6899L38.3299 12.6499H21.4099L38.7499 36.1599L19.4299 62.3499H36.3499L47.2099 47.6199L58.0699 62.3499H66.5299H74.9899H83.4399L103.18 35.7499V48.9199H99.0399L89.0399 62.3499H113.44H117.28V12.6499H103.18L70.7599 56.6099Z" fill="white"/>
</svg>
