<svg width="251" height="76" viewBox="0 0 251 76" fill="none" xmlns="http://www.w3.org/2000/svg">
<g clip-path="url(#clip0_34:4818)">
<path d="M38.4871 20.1436C38.3148 20.0589 38.1179 20.039 37.9321 20.0874C37.8397 20.1192 37.7573 20.175 37.6933 20.2489C37.6331 20.3308 37.5901 20.424 37.5669 20.5229C37.5061 20.7232 37.494 20.9351 37.5317 21.141C37.5359 21.2159 37.5548 21.2891 37.5873 21.3566C37.6199 21.4242 37.6654 21.4846 37.7214 21.5344C37.8156 21.5866 37.9234 21.6086 38.0305 21.5976C38.1554 21.5813 38.2779 21.5507 38.3958 21.5063L39.5337 21.0778L39.7726 20.9795L39.4494 20.7336C39.1472 20.5082 38.8251 20.3107 38.4871 20.1436Z" fill="white"/>
<path d="M73.7568 7.94197C73.0026 6.38689 71.922 5.01274 70.5885 3.91324C69.2551 2.81375 67.7002 2.01477 66.0299 1.5708C63.897 1.00506 61.6965 0.735599 59.4901 0.770015C55.4695 0.81872 51.4575 1.15677 47.4854 1.78153C44.3194 2.21967 41.1847 2.86021 38.1007 3.69921C37.2156 3.94506 36.3305 4.21199 35.4595 4.5C32.2965 5.62344 29.2128 6.95877 26.2294 8.4969C25.5269 8.83876 24.8245 9.18998 24.122 9.55057C22.5842 10.3586 21.097 11.2594 19.6686 12.248C19.1277 12.6273 18.5938 13.0206 18.074 13.4281C15.5316 15.4238 13.2203 17.6974 11.183 20.2067C9.1215 22.7502 7.3278 25.4996 5.83039 28.4112C4.37159 31.2376 3.17251 34.1906 2.24793 37.2339C1.73822 38.8817 1.31848 40.556 0.990552 42.2494C-0.702339 50.7489 -0.421361 59.677 3.33672 65.9358C7.25636 72.4685 14.7233 74.9482 22.4292 75.5733C30.7178 76.1325 39.0419 75.316 47.0639 73.1569C54.7908 71.162 64.4634 67.9659 69.9495 59.8105C72.5415 55.9611 73.4618 51.6411 73.9113 47.5598C74.4241 42.727 74.6559 37.9293 75.0001 33.1316C75.3373 28.5236 75.7868 23.8664 75.7798 19.3426C75.7939 15.2895 75.3724 11.2224 73.7568 7.94197ZM53.5404 16.4205C55.2474 16.2378 56.7998 16.0833 58.4575 15.9709C59.3053 16.0003 60.1397 16.191 60.9161 16.5329C60.0029 17.1229 59.2021 17.8605 58.0712 18.0221C55.4721 18.4084 52.276 18.872 50.2179 19.16C51.0959 17.5233 52.3533 16.5399 53.5404 16.4205ZM37.9321 17.2494C38.6335 15.4151 39.0137 13.4737 39.056 11.5104C39.3756 11.6819 39.6386 11.9424 39.8131 12.2603C39.9876 12.5782 40.0663 12.9399 40.0394 13.3016C40.0394 13.6107 40.0394 13.8004 40.2923 13.8144C40.5249 13.8173 40.75 13.8976 40.9319 14.0426C41.1138 14.1876 41.2422 14.3891 41.2968 14.6152C40.9949 14.6198 40.701 14.7127 40.4513 14.8825C40.2016 15.0523 40.0072 15.2915 39.8919 15.5705C39.6812 16.0412 39.8919 16.273 40.1167 16.3994C40.3415 16.5258 40.7138 16.568 41.2828 15.8866C41.1563 16.7647 41.4724 17.0105 41.6761 17.1019C41.8798 17.1932 42.2311 17.1861 42.4418 16.7085C42.5734 16.4408 42.6236 16.1404 42.5861 15.8445C42.5487 15.5486 42.4252 15.2701 42.2311 15.0437C42.3294 14.8866 42.4696 14.76 42.6358 14.6781C42.8021 14.5962 42.9879 14.5623 43.1723 14.5801C43.5657 14.6854 43.7694 14.4185 43.9872 14.0041C44.1189 13.7876 44.315 13.6178 44.548 13.5183C44.781 13.4188 45.0393 13.3946 45.2867 13.4491C45.5009 13.5975 45.6621 13.8104 45.7468 14.0568C45.8314 14.3032 45.8351 14.5702 45.7573 14.8189C45.5958 15.2544 45.5326 15.5846 45.8697 15.8164C46.0062 15.9404 46.1045 16.1008 46.153 16.2787C46.2015 16.4566 46.1983 16.6447 46.1437 16.8209C45.8415 16.8203 45.5461 16.9103 45.2957 17.0794C45.0452 17.2484 44.8512 17.4887 44.7388 17.7692C44.521 18.2468 44.7388 18.4716 44.9566 18.6051C45.1743 18.7385 45.5536 18.7666 46.1226 18.0923C45.9962 18.9633 46.3123 19.2092 46.516 19.3075C46.7197 19.4059 47.0709 19.3848 47.2816 18.9142C47.4133 18.6465 47.4634 18.3461 47.426 18.0502C47.3885 17.7542 47.2651 17.4758 47.0709 17.2494C47.277 17.1397 47.5137 17.1015 47.7438 17.1409C47.974 17.1804 48.1845 17.2951 48.3423 17.4671C48.546 17.6638 48.6655 17.5163 48.8902 17.3126C49.1475 17.0517 49.4752 16.8715 49.8333 16.7942C50.1914 16.7168 50.5643 16.7456 50.9063 16.8771C49.4743 18.2141 48.2859 19.79 47.394 21.5343C47.3696 21.5845 47.3269 21.6235 47.2746 21.6431C47.2223 21.6627 47.1645 21.6615 47.1131 21.6396L45.7082 21.0215C45.8274 20.8629 45.9053 20.6771 45.9347 20.4809C45.9642 20.2846 45.9442 20.0842 45.8768 19.8976C45.7623 19.6847 45.5948 19.505 45.3905 19.3758C45.1862 19.2466 44.9521 19.1723 44.7107 19.16C44.513 19.1303 44.3135 19.1138 44.1136 19.1108C43.5562 19.1038 43.0082 19.2548 42.5331 19.5464H42.4839L40.1027 18.4857L37.9953 17.5303C37.9511 17.5003 37.92 17.4545 37.9082 17.4023C37.8965 17.3502 37.905 17.2955 37.9321 17.2494ZM28.9338 16.1536C29.4747 16.0833 30.0156 16.006 30.5635 15.9709C30.7953 15.9709 31.0973 15.8936 31.2659 16.1606C31.4345 16.4275 31.1605 16.568 30.999 16.7296C30.7897 16.9307 30.6663 17.2051 30.6548 17.4952C30.6126 18.7315 30.7812 18.858 32.0597 18.7104C33.3381 18.5629 35.2417 18.3733 36.2743 18.2679C36.3072 18.466 36.2973 18.6687 36.2452 18.8626C36.1931 19.0565 36.1 19.2369 35.9723 19.3918C35.3326 20.1937 34.4334 20.7477 33.4294 20.9583C33.2047 20.9934 31.568 21.1198 31.4415 21.169C31.3871 21.1898 31.34 21.2262 31.3063 21.2737C31.2725 21.3212 31.2536 21.3777 31.2519 21.4359C31.1857 21.7181 31.195 22.0128 31.2789 22.2902C31.3627 22.5676 31.5182 22.8181 31.7295 23.0164C31.9403 23.192 32.3406 23.2412 32.2142 23.6205C32.1299 23.8875 31.7085 23.9226 31.4134 23.9507C30.9077 24.0069 30.444 24.028 29.9313 24.0841C29.7627 24.0841 29.573 24.1614 29.4747 23.9577C29.4298 23.8822 29.4136 23.7931 29.4291 23.7067C29.4446 23.6202 29.4907 23.5423 29.559 23.4871C30.156 23.0445 30.0296 22.4264 29.9594 21.8293C29.8048 20.5719 29.6222 19.3216 29.4887 18.0642C29.4918 17.8291 29.429 17.5979 29.3073 17.3968C29.1856 17.1956 29.01 17.0326 28.8003 16.9262C28.7055 16.8937 28.6243 16.8304 28.5695 16.7464C28.5148 16.6624 28.4897 16.5625 28.4983 16.4626C28.4983 16.2238 28.7512 16.1746 28.9338 16.1536ZM28.1892 32.2676C28.2041 32.403 28.2299 32.5369 28.2665 32.668C28.3259 32.8193 28.366 32.9774 28.3859 33.1387C28.3859 33.1387 28.3859 33.1808 28.3859 33.2019C28.3859 33.2229 28.3859 33.4126 28.2524 33.4196C28.1632 33.4203 28.0756 33.396 27.9995 33.3494C27.8801 33.2791 27.7607 33.223 27.6343 33.1597L26.3137 32.4573L25.0282 31.804C24.9253 31.756 24.8393 31.678 24.7817 31.5802C24.724 31.4824 24.6973 31.3694 24.7051 31.2561C24.7051 30.5958 24.6489 29.9285 24.5857 29.2752C24.5435 28.7484 24.7472 28.6219 25.1617 28.9099C26.4261 29.774 27.4727 29.5 28.3929 28.362C28.5122 28.2065 28.6489 28.0651 28.8003 27.9406C29.2148 27.6315 29.7205 28.0389 29.9875 28.2356C30.9428 28.938 30.3246 29.3595 29.7486 29.788L29.5941 29.8934C29.3644 30.027 29.148 30.1822 28.9478 30.357C28.7658 30.511 28.6072 30.6909 28.4772 30.8908C28.35 31.0808 28.2595 31.2928 28.2103 31.516C28.1582 31.7633 28.1511 32.0179 28.1892 32.2676ZM29.1375 31.3825C29.4287 30.9313 29.8431 30.573 30.3317 30.35C31.0341 29.9636 31.0341 29.8161 32.3617 30.5115C32.7004 30.6312 33.0077 30.8256 33.2608 31.0805C33.4856 31.4739 33.008 31.5511 32.72 32.1061C32.6036 32.3162 32.5027 32.5346 32.4179 32.7593C32.274 33.1666 32.1888 33.5924 32.165 34.0237C32.1088 34.7964 31.8349 34.6489 31.3151 34.396C31.3151 34.396 29.9102 33.6936 29.7205 33.5812C29.4767 33.3783 29.3043 33.1026 29.2288 32.7945C29.1189 32.5775 29.0542 32.3405 29.0385 32.0979C29.0228 31.8552 29.0565 31.6118 29.1375 31.3825ZM33.2257 27.7931C32.879 27.8089 32.5377 27.7032 32.2607 27.4941C31.9836 27.2851 31.7883 26.9858 31.7084 26.6481C31.6031 25.9456 32.0667 25.4188 32.9237 25.0676C32.3406 26.1283 32.8464 26.8869 34.1881 26.7043C35.1578 26.4633 36.1478 26.3128 37.1454 26.2547C37.4817 26.2355 37.8167 26.3101 38.1131 26.4701C38.4095 26.6301 38.6557 26.8692 38.8242 27.1609C37.3561 26.5076 36.1479 27.0344 34.9046 27.4559C34.3747 27.6845 33.8028 27.7994 33.2257 27.7931ZM22.1482 19.2584C22.949 19.1741 23.1105 19.0195 23.1948 18.6964C23.2061 18.4952 23.2798 18.3025 23.4057 18.1451C23.5316 17.9877 23.7034 17.8735 23.8973 17.8183C24.4592 17.6568 24.8596 18.296 24.8596 18.296C24.8786 18.1455 24.9423 18.0041 25.0425 17.8902C25.1427 17.7762 25.2747 17.6949 25.4216 17.6568C25.9906 17.5233 26.4612 18.2187 26.4612 18.2187C26.4612 18.2187 26.405 17.8254 27.0231 17.6568C27.1538 17.6179 27.2929 17.6179 27.4235 17.6568C27.6243 17.7441 27.7952 17.8881 27.9153 18.0712C28.0292 18.23 28.1126 18.4087 28.1611 18.5981C28.1611 18.7315 28.2173 18.865 28.2384 18.9914L28.3016 19.3497C28.3016 19.4902 28.3508 19.6307 28.3789 19.7782C28.407 19.9257 28.421 20.0872 28.4491 20.2418L28.5123 20.7265L28.5545 21.2112C28.5545 21.3657 28.5545 21.5132 28.5545 21.6677C28.5615 21.8058 28.5615 21.9441 28.5545 22.0822C28.5497 22.1999 28.538 22.3171 28.5194 22.4334C28.5019 22.5209 28.4736 22.6058 28.4351 22.6863C28.0347 23.4871 28.119 24.2879 28.3578 25.7349C28.5966 27.1819 27.8872 28.4182 26.7562 28.6149C26.548 28.6613 26.3322 28.6613 26.124 28.6149C25.908 28.5419 25.7007 28.4453 25.5059 28.3269C25.3443 28.2145 24.6629 27.7158 24.5646 27.1819C24.3679 26.1002 24.1291 24.0631 24.0307 23.6065C23.9676 23.4356 23.9206 23.2593 23.8902 23.0797C23.8902 23.0024 23.9464 22.9532 24.094 22.904C24.094 22.904 24.6559 22.7776 24.8526 22.7144L25.6323 22.4826C26.4331 22.2437 27.2198 21.45 26.995 20.7194C26.8265 20.1645 26.4682 20.2839 26.4331 20.4033C26.3752 20.6777 26.2388 20.9293 26.0405 21.1276C25.8422 21.3259 25.5906 21.4623 25.3162 21.5202C24.7542 21.6045 24.6138 20.881 24.6138 20.881C24.6228 20.9686 24.6132 21.0572 24.5857 21.1409C24.5296 21.2433 24.4524 21.3327 24.3591 21.4029C24.2659 21.4732 24.1587 21.5227 24.0448 21.5483C23.9394 21.5834 23.0754 21.745 23.0333 21.7591C22.9911 21.7731 23.0333 22.04 23.0333 22.0752C23.0754 22.2297 23.0895 22.3842 22.8998 22.4475C22.851 22.4561 22.8011 22.4561 22.7523 22.4475C22.2077 22.4362 21.6734 22.2966 21.1929 22.04C20.9723 21.8909 20.7947 21.6867 20.6776 21.4476C20.5605 21.2085 20.5081 20.9429 20.5255 20.6773C20.4693 19.9748 21.3474 19.3356 22.1482 19.2584ZM48.0122 64.5941C42.1117 65.8445 36.7169 64.3904 31.568 61.5596C31.4766 61.5104 30.0085 60.6745 29.8259 60.6323C29.7381 60.6115 29.6462 60.6155 29.5605 60.6441C29.4749 60.6726 29.3989 60.7245 29.3412 60.7939C29.1362 60.9459 28.9937 61.1676 28.9407 61.4173C28.8876 61.6669 28.9276 61.9274 29.0532 62.1496C29.1273 62.2722 29.1755 62.4086 29.1951 62.5505C29.2146 62.6924 29.205 62.8368 29.1669 62.9749C29.1288 63.1129 29.0629 63.2417 28.9733 63.3535C28.8837 63.4652 28.7723 63.5575 28.6458 63.6248C28.4144 63.7674 28.1377 63.8178 27.8709 63.7657C27.604 63.7136 27.3666 63.563 27.2058 63.3438C27.026 63.1388 26.9268 62.8754 26.9268 62.6027C26.9268 62.33 27.026 62.0666 27.2058 61.8616C27.5426 61.3602 27.9061 60.8772 28.2946 60.4146C28.5404 60.1125 28.4632 59.9439 28.126 59.7754C26.7211 59.0729 25.3794 58.3143 23.9886 57.6189C23.1737 57.2114 22.8296 57.366 22.5064 58.2581C22.379 58.6209 22.2987 58.9987 22.2676 59.382C22.2662 59.3956 22.2617 59.4086 22.2546 59.4203C22.2475 59.4319 22.2378 59.4418 22.2264 59.4492C22.2149 59.4566 22.202 59.4614 22.1884 59.4631C22.1749 59.4648 22.1611 59.4635 22.1482 59.4593C20.5326 58.8271 19.795 57.7242 20.4342 56.0946C20.7618 55.3179 21.3757 54.6972 22.1486 54.361C22.9216 54.0249 23.7943 53.9992 24.5857 54.2893C24.8666 54.4157 25.0984 54.4649 24.8315 54.8793C24.2063 55.8768 24.5014 56.4036 25.7868 56.9867C26.3488 57.2255 26.2856 57.2325 26.2434 56.7689C26.1451 55.7152 26.1872 54.9566 27.6062 53.6079C26.9459 53.5025 25.7728 53.4463 25.4988 53.0108C24.8526 51.9642 24.3258 52.1047 23.4407 52.5402C23.6093 51.0791 25.3794 50.2994 27.4657 50.4328C27.6202 50.4328 27.845 50.475 27.831 50.2502C27.8169 50.0254 27.1285 49.6742 26.7141 49.4424C26.5462 49.3696 26.4134 49.2342 26.3439 49.0649C26.2744 48.8957 26.2736 48.706 26.3418 48.5362C26.7843 47.6933 25.7587 47.2227 25.26 47.2086C26.8686 46.0145 29.854 47.2086 30.6267 49.4845C30.8515 50.187 30.999 50.8894 31.2448 51.5427C31.6101 52.5472 32.0456 52.7509 33.015 52.5051C34.3392 52.2319 35.5578 51.5861 36.5272 50.6436C36.8842 50.3063 37.1528 49.8865 37.3096 49.421C37.4664 48.9556 37.5065 48.4588 37.4263 47.9743C37.3491 47.4896 37.2929 47.0049 37.1945 46.5273C36.9136 45.2067 37.1945 44.5183 38.4308 43.9352C40.1658 43.2359 41.9416 42.6424 43.7483 42.158C44.0644 42.0527 44.219 42.158 44.3454 42.4671C44.8863 43.6121 45.4202 44.7571 46.0032 45.888C46.2491 46.3727 46.0032 46.4711 45.6309 46.5905C44.3946 46.8855 43.1723 47.2086 41.9431 47.4966C41.3109 47.6371 41.072 47.9392 41.2406 48.5995C41.4252 49.3496 41.6599 50.0864 41.9431 50.8051C42.3575 51.9712 42.1749 52.3294 41.051 52.7931C39.7233 53.348 38.4098 53.938 37.0821 54.493C36.897 54.5565 36.7332 54.6703 36.6092 54.8217C36.4851 54.973 36.4056 55.156 36.3797 55.35C36.0425 57.1763 33.7174 58.4126 32.5654 58.3705C32.9158 58.0614 33.1687 57.6571 33.2934 57.2069C33.4181 56.7567 33.4092 56.2799 33.2679 55.8346C33.1736 55.5312 33.0185 55.2501 32.8119 55.0085C32.6054 54.767 32.3518 54.57 32.0667 54.4298C30.6618 53.7695 29.3974 54.4298 28.6739 56.2069C28.5071 56.0796 28.3113 55.9958 28.104 55.963C27.8967 55.9303 27.6846 55.9496 27.4867 56.0193C27.2888 56.089 27.1113 56.2068 26.9703 56.3622C26.8293 56.5176 26.7292 56.7057 26.6789 56.9094C26.5314 57.2887 26.6789 57.2957 26.9669 57.4362L29.1796 58.3705C29.3342 58.4337 29.5028 58.5391 29.6503 58.3705C29.7282 58.3048 29.7797 58.2131 29.7952 58.1123C29.8107 58.0116 29.7892 57.9086 29.7346 57.8226C29.585 57.5847 29.5047 57.3098 29.5028 57.0288C29.5146 56.8333 29.5806 56.6449 29.6935 56.4848C29.8064 56.3248 29.9618 56.1993 30.142 56.1227C30.3591 56.0005 30.6131 55.9609 30.8571 56.0113C31.101 56.0616 31.3186 56.1985 31.4696 56.3966C31.6503 56.5828 31.7559 56.8291 31.7663 57.0883C31.7767 57.3475 31.691 57.6015 31.5258 57.8015C31.2589 58.1738 30.5986 58.5039 30.8234 58.9114C30.8959 59.0067 30.9897 59.0837 31.0973 59.1361C32.3055 59.6981 40.6716 62.1356 46.6986 60.6745C47.2044 62.7818 49.41 63.1471 51.3207 63.1822C50.3237 63.8699 49.1985 64.35 48.0122 64.5941ZM58.7947 56.9656C58.6331 58.3705 58.1695 59.1642 57.2142 59.684C57.2838 59.4551 57.2838 59.2106 57.2142 58.9816C57.1973 58.8783 57.1575 58.7802 57.0978 58.6943C57.0381 58.6084 56.9599 58.5369 56.869 58.485C56.7781 58.4332 56.6768 58.4023 56.5725 58.3946C56.4681 58.387 56.3634 58.4027 56.2659 58.4407C55.8374 58.6514 55.6759 60.0001 55.4862 60.548C55.149 61.5034 54.8259 61.6509 53.8495 61.3488C53.6232 61.9723 53.6035 62.652 53.7933 63.2876C53.2723 62.8765 52.8529 62.3509 52.5679 61.7515C52.2828 61.1521 52.1397 60.4952 52.1496 59.8316C51.7141 60.1055 51.3418 60.3514 50.9554 60.5832C50.6815 60.7447 50.4005 60.9765 50.0633 60.7939C48.9113 60.1687 48.6584 61.0046 48.4126 61.693C47.668 60.2881 48.3002 58.6093 49.8175 57.4784C49.972 57.3519 49.7262 57.2325 49.5716 57.2114C49.1361 57.1693 48.0403 57.2957 47.9419 57.0077C47.6539 56.1297 46.9585 56.0313 46.228 56.3966C46.4738 54.7459 48.6584 53.8608 50.555 54.2893C51.197 54.4524 51.8039 54.7309 52.3463 55.1111C52.9253 55.5442 53.5917 55.8462 54.2991 55.9962C54.4309 56.0359 54.5703 56.044 54.7059 56.0198C54.8414 55.9957 54.9694 55.94 55.0795 55.8573C55.1896 55.7746 55.2787 55.6671 55.3396 55.5436C55.4005 55.4201 55.4314 55.284 55.43 55.1463C55.5753 54.2117 55.3683 53.2566 54.8491 52.4661C54.3299 51.6756 53.5356 51.1062 52.6202 50.8684C51.8328 50.6918 51.0655 50.4352 50.3303 50.1027C49.3412 49.6831 48.5497 48.9017 48.1176 47.9181C47.2254 45.9161 46.242 43.9633 45.3078 41.9754C45.2462 41.7885 45.1264 41.6262 44.9658 41.5124C44.8052 41.3987 44.6124 41.3393 44.4157 41.3432C42.9917 41.2698 41.5792 41.0486 40.201 40.6829C39.3822 40.4731 38.6425 40.0287 38.0726 39.4045C37.9464 39.2508 37.7784 39.1372 37.5888 39.0773C37.3993 39.0174 37.1964 39.014 37.0049 39.0673C34.7079 39.4817 32.4109 39.8821 30.1069 40.2404C29.6362 40.3176 29.5168 40.5846 29.3623 40.9428C29.1503 41.4892 28.7522 41.9432 28.2381 42.2247C27.724 42.5062 27.127 42.597 26.5525 42.4812C26.7562 42.3477 27.255 41.9965 26.8335 41.4767C26.1943 40.697 26.1943 40.6759 25.548 41.4767C24.7472 42.4741 24.1431 42.6006 23.0473 41.9403C22.7101 41.7366 22.2254 42.1018 22.2816 42.8745C21.4317 41.87 21.7056 41.006 22.4432 39.4185C21.8883 39.3693 20.5255 39.545 20.3008 39.0041C19.8723 37.9855 19.0083 38.0839 18.1934 38.6739C18.657 36.981 20.6098 36.103 22.6399 36.2364C22.2325 35.5761 20.8276 35.2741 21.0172 34.5576C21.2912 33.525 20.7363 33.0122 20.0198 33.1035C20.8416 31.6986 24.0518 32.8647 25.0984 34.6911C25.3935 35.2193 25.5955 35.7943 25.6955 36.391C25.7052 36.5589 25.7509 36.7227 25.8295 36.8714C25.9081 37.02 26.0177 37.1501 26.151 37.2527C26.2842 37.3552 26.4379 37.428 26.6017 37.466C26.7656 37.5039 26.9356 37.5063 27.1004 37.4727C30.7531 37.1004 34.9608 35.7307 35.9442 33.6866C34.6587 34.389 34.4269 33.8762 33.6893 34.2766C33.4914 34.3714 33.32 34.5138 33.1906 34.6911C33.121 34.4229 33.0902 34.1461 33.0993 33.8692C33.1625 32.9841 33.6612 32.4643 34.3988 31.6635C34.5042 31.5511 34.7711 31.3404 34.6095 31.2561C33.4997 30.659 34.6095 30.371 34.6868 29.514C34.6591 29.2677 34.6877 29.0184 34.7705 28.7847C34.8532 28.5511 34.9879 28.3393 35.1645 28.1653C35.4589 28.5584 35.8437 28.8748 36.2864 29.0875C36.729 29.3003 37.2164 29.4032 37.7073 29.3876C38.1697 29.3872 38.6199 29.2395 38.9928 28.9661C39.5332 28.552 39.9307 27.9793 40.1297 27.3282C40.3287 26.677 40.3192 25.98 40.1027 25.3345C40.0218 24.9847 39.8392 24.6667 39.578 24.4205C39.3167 24.1742 38.9885 24.0108 38.6346 23.9507C38.2728 23.8699 37.8955 23.8929 37.5463 24.0172C37.1971 24.1415 36.8901 24.3619 36.6607 24.6531C36.4878 24.8857 36.3526 25.1441 36.2603 25.4188C36.1847 25.3073 36.0871 25.2125 35.9736 25.14C35.86 25.0675 35.7329 25.019 35.6 24.9973C35.1013 24.892 34.5885 24.7444 34.5112 24.2176C34.4971 24.052 34.447 23.8914 34.3645 23.747C34.282 23.6027 34.1691 23.478 34.0335 23.3817C33.6402 23.0726 33.7947 22.6793 34.1108 22.3351C34.729 21.6888 35.5578 21.0215 36.2181 20.4033C36.7217 19.9714 37.1021 19.414 37.321 18.7877C37.4544 18.3311 37.6511 18.2258 38.1218 18.4576C39.337 19.0406 40.5873 19.5604 41.8166 20.1294C41.9846 20.2363 42.1795 20.293 42.3786 20.293C42.5777 20.293 42.7726 20.2363 42.9405 20.1294C43.4418 19.8337 44.0347 19.7336 44.6053 19.8484C45.1111 19.9257 45.4483 20.0943 45.0408 20.6562C44.6334 21.2182 44.802 21.5273 45.4553 21.752C46.1122 22.0044 46.7548 22.2929 47.38 22.616C46.9726 23.459 46.1156 22.9673 45.659 23.6767C46.0796 23.8422 46.488 24.037 46.8812 24.2598C47.2883 24.4909 47.6144 24.8416 47.8155 25.2643C47.5549 25.2273 47.2892 25.274 47.0569 25.3977C46.6242 25.792 46.1215 26.1018 45.5747 26.3109C46.0625 26.5446 46.6009 26.6532 47.1412 26.627C47.3848 26.6298 47.6256 26.5744 47.8436 26.4654C47.9807 26.7263 48.0323 27.0236 47.9911 27.3154C47.9393 27.6942 47.7887 28.0526 47.5544 28.3547C47.3201 28.6568 47.0104 28.8919 46.6565 29.0364C46.3489 29.1675 46.0347 29.2823 45.7152 29.3806C46.0947 29.6922 46.3996 30.0849 46.6075 30.5298C46.8153 30.9747 46.9209 31.4605 46.9164 31.9515C46.9379 32.519 46.739 33.0728 46.3614 33.4969C45.1693 32.7511 43.7642 32.4202 42.3645 32.5556C42.6596 33.7638 43.931 35.2881 44.4719 35.8852C44.6301 35.1889 45.0567 34.583 45.659 34.1993C46.1454 36.2679 47.3819 38.0825 49.1291 39.2921C49.7873 39.6729 50.4971 39.9568 51.2364 40.135C51.8355 40.2542 52.4499 40.2756 53.0557 40.1982C54.1511 40.0039 55.1406 39.4239 55.8454 38.5632C56.5502 37.7025 56.9236 36.618 56.8981 35.5059C56.8525 34.641 56.576 33.8042 56.0973 33.0825C56.0885 33.0752 56.0814 33.0661 56.0765 33.0558C56.0716 33.0455 56.0691 33.0342 56.0691 33.0228C56.0691 33.0113 56.0716 33.0001 56.0765 32.9897C56.0814 32.9794 56.0885 32.9703 56.0973 32.963C56.4204 32.8507 57.5022 32.963 57.7691 33.4126C58.4051 34.7607 58.5072 36.2996 58.0551 37.7199C57.6029 39.1403 56.6299 40.3369 55.3317 41.0693C54.4194 41.5242 53.4437 41.8392 52.4376 42.0035C52.3924 42.0059 52.3486 42.0195 52.31 42.0429C52.2713 42.0664 52.2391 42.099 52.2161 42.138C52.1932 42.1769 52.1802 42.221 52.1784 42.2661C52.1766 42.3113 52.186 42.3562 52.2058 42.3969C52.2479 42.5233 53.8074 47.2789 53.9268 47.609C54.4396 49.0139 54.9594 49.2176 56.3643 48.74C58.3522 48.0375 58.9001 48.4379 58.9001 50.5874C58.9838 52.7137 58.9486 54.8431 58.7947 56.9656ZM60.319 29.6545C59.5354 30.6658 58.4303 31.3795 57.1861 31.6776C56.877 31.7548 55.0788 32.0709 54.2218 32.2676C53.7443 32.36 53.3134 32.6147 53.0023 32.9886C52.6912 33.3624 52.519 33.8324 52.5149 34.3188C52.5015 34.6867 52.5936 35.0508 52.7803 35.3681C52.967 35.6855 53.2405 35.9429 53.5685 36.11C53.5264 36.5666 52.4868 36.9459 51.9459 36.6158C51.5487 36.3202 51.2818 35.882 51.2013 35.3935C51.2013 35.3935 50.2951 35.4567 50.4988 36.7001C50.2321 36.6422 49.988 36.508 49.7964 36.3137C49.656 36.1855 49.5453 36.0283 49.472 35.8529C49.3986 35.6775 49.3645 35.4882 49.3718 35.2983C49.3792 35.1083 49.4279 34.9223 49.5146 34.7531C49.6012 34.5839 49.7238 34.4357 49.8737 34.3188C49.8737 34.3188 49.115 34.1923 49.2625 33.4969C49.2586 33.4713 49.2586 33.4452 49.2625 33.4196C49.3242 33.2171 49.4325 33.0319 49.5786 32.8788C49.7987 32.6374 50.0546 32.4313 50.3373 32.2676C50.539 32.1411 50.7504 32.0307 50.9695 31.9375C52.2706 31.3849 53.627 30.9728 55.0156 30.7082C55.824 30.5614 56.6167 30.3379 57.3828 30.0409C57.8396 29.8799 58.2581 29.6262 58.6121 29.2957C58.9661 28.9653 59.248 28.5651 59.4399 28.1205C59.6319 27.6759 59.7298 27.1964 59.7276 26.7121C59.7253 26.2278 59.623 25.7492 59.4269 25.3064C59.0328 24.3941 58.2999 23.6703 57.3826 23.2877C56.4654 22.9051 55.4354 22.8935 54.5098 23.2553C52.269 24.0982 51.5806 26.0088 52.3673 27.9054C52.6624 28.6429 53.1184 29.3053 53.702 29.8442C53.7123 29.855 53.7196 29.8683 53.7231 29.8828C53.7266 29.8973 53.7261 29.9124 53.7218 29.9267C53.7176 29.941 53.7096 29.9539 53.6987 29.9641C53.6878 29.9743 53.6744 29.9814 53.6598 29.9847C52.1636 30.364 51.4682 29.8442 50.9344 28.6641C49.4522 25.4469 51.2926 22.2086 54.9734 21.5553C55.6609 21.4172 56.3693 21.4202 57.0556 21.5641C57.742 21.708 58.3919 21.9898 58.966 22.3925C59.5401 22.7951 60.0264 23.3102 60.3955 23.9065C60.7645 24.5028 61.0085 25.1679 61.1128 25.8613C61.2423 26.5145 61.2387 27.187 61.1023 27.8388C60.966 28.4906 60.6995 29.1081 60.319 29.6545Z" fill="white"/>
<path d="M250.197 50.4187H248.904V48.6837H247.675V50.4187H246.403V51.4372H247.675V56.9655H248.904V51.4372H250.197V50.4187ZM243.109 50.222C242.681 50.2093 242.258 50.3059 241.878 50.5025C241.498 50.6992 241.175 50.9895 240.938 51.3459L240.819 50.4327H239.815V56.9655H241.044V53.081C241.032 52.8477 241.07 52.6147 241.155 52.3971C241.24 52.1796 241.37 51.9824 241.537 51.8186C241.703 51.6548 241.903 51.528 242.121 51.4466C242.34 51.3651 242.574 51.3308 242.807 51.3459C243.699 51.3459 244.31 51.8517 244.31 53.2004V56.9655H245.554V52.9054C245.554 51.1703 244.556 50.222 243.109 50.222ZM233.275 53.1723C233.274 52.9097 233.328 52.6499 233.432 52.4089C233.536 52.1679 233.689 51.9511 233.881 51.7718C234.073 51.5925 234.299 51.4547 234.547 51.3669C234.794 51.2791 235.057 51.2433 235.319 51.2616C235.573 51.2483 235.826 51.2887 236.063 51.3802C236.301 51.4717 236.516 51.6123 236.695 51.7926C236.874 51.973 237.013 52.1891 237.102 52.4268C237.192 52.6646 237.231 52.9186 237.215 53.1723H233.275ZM238.473 54.9916H237.272C237.111 55.3526 236.842 55.655 236.503 55.8575C236.163 56.0599 235.769 56.1525 235.375 56.1225C235.099 56.1362 234.823 56.0926 234.564 55.9947C234.306 55.8967 234.07 55.7464 233.872 55.5532C233.675 55.36 233.519 55.1281 233.415 54.8719C233.311 54.6157 233.261 54.3408 233.268 54.0644H238.41C238.455 53.819 238.474 53.5693 238.466 53.3198C238.485 52.9036 238.417 52.4879 238.265 52.0999C238.113 51.7119 237.881 51.3603 237.584 51.068C237.287 50.7757 236.932 50.5492 236.542 50.4035C236.151 50.2577 235.735 50.1959 235.319 50.222C234.43 50.2672 233.593 50.6534 232.982 51.3003C232.371 51.9472 232.033 52.8048 232.038 53.6947C232.044 54.5845 232.392 55.438 233.011 56.0774C233.63 56.7167 234.472 57.0927 235.361 57.127C236.04 57.1822 236.718 57.0032 237.282 56.6198C237.845 56.2365 238.261 55.6718 238.459 55.0197L238.473 54.9916ZM228.379 50.222C227.936 50.2075 227.499 50.3255 227.124 50.5607C226.748 50.796 226.451 51.1378 226.271 51.5426C226.095 51.1731 225.825 50.8567 225.487 50.6257C225.149 50.3946 224.756 50.2571 224.348 50.2272C223.94 50.1972 223.531 50.2758 223.163 50.4551C222.795 50.6343 222.481 50.9077 222.253 51.2476L222.169 50.4187H221.066V56.9655H222.303V52.9475C222.289 52.7364 222.319 52.5247 222.39 52.3254C222.461 52.1261 222.572 51.9434 222.716 51.7883C222.86 51.6332 223.034 51.5091 223.227 51.4233C223.421 51.3376 223.629 51.2922 223.841 51.2897C224.049 51.2801 224.256 51.3166 224.448 51.3968C224.64 51.477 224.811 51.5987 224.95 51.7533C225.09 51.9078 225.193 52.0914 225.252 52.2906C225.312 52.4898 225.326 52.6998 225.295 52.9054V56.9655H226.51V52.9615C226.495 52.7469 226.524 52.5314 226.596 52.3285C226.667 52.1257 226.781 51.9399 226.928 51.7829C227.075 51.6258 227.253 51.501 227.451 51.4161C227.648 51.3312 227.862 51.2882 228.077 51.2897C228.927 51.2897 229.482 51.7814 229.482 52.9054V56.9655H230.697V52.6384C230.73 52.3207 230.694 51.9996 230.59 51.6974C230.486 51.3952 230.318 51.1194 230.097 50.8892C229.875 50.659 229.606 50.48 229.308 50.3648C229.01 50.2495 228.69 50.2008 228.372 50.222H228.379ZM216.901 50.222C216.478 50.2148 216.06 50.3139 215.686 50.5103C215.312 50.7067 214.993 50.994 214.758 51.3459L214.639 50.4327H213.62V56.9655H214.85V53.081C214.838 52.8477 214.876 52.6147 214.961 52.3971C215.046 52.1796 215.176 51.9824 215.343 51.8186C215.509 51.6548 215.708 51.528 215.927 51.4466C216.146 51.3651 216.38 51.3308 216.613 51.3459C217.505 51.3459 218.109 51.8517 218.109 53.2004V56.9655H219.352V52.9054C219.352 51.1703 218.362 50.222 216.908 50.222H216.901ZM206.519 53.6921C206.535 53.2492 206.682 52.821 206.941 52.461C207.199 52.1011 207.558 51.8253 207.972 51.6681C208.387 51.511 208.838 51.4794 209.271 51.5774C209.703 51.6755 210.097 51.8987 210.403 52.2192C210.709 52.5397 210.914 52.9434 210.992 53.3796C211.07 53.8159 211.017 54.2655 210.841 54.6723C210.665 55.079 210.373 55.4248 210.002 55.6665C209.63 55.9082 209.196 56.0351 208.752 56.0312C208.45 56.0326 208.15 55.9722 207.871 55.8537C207.593 55.7353 207.341 55.5613 207.132 55.3424C206.923 55.1234 206.761 54.8642 206.655 54.5804C206.55 54.2967 206.503 53.9944 206.519 53.6921ZM205.24 53.6921C205.232 54.3885 205.431 55.0716 205.812 55.6547C206.192 56.2378 206.738 56.6945 207.379 56.9669C208.02 57.2392 208.727 57.3148 209.411 57.184C210.096 57.0533 210.725 56.7222 211.221 56.2327C211.716 55.7432 212.055 55.1175 212.194 54.4351C212.333 53.7527 212.266 53.0443 212.001 52.4001C211.737 51.7558 211.287 51.2048 210.708 50.817C210.13 50.4292 209.449 50.2221 208.752 50.222C208.29 50.2025 207.828 50.2786 207.396 50.4455C206.963 50.6124 206.57 50.8666 206.241 51.1922C205.911 51.5178 205.652 51.9078 205.48 52.338C205.308 52.7681 205.226 53.229 205.24 53.6921ZM204.215 50.3555C203.857 50.3248 203.498 50.4109 203.193 50.6008C202.888 50.7907 202.652 51.0743 202.522 51.4091L202.374 50.4187H201.292V56.9655H202.522V53.4533C202.522 52.0484 203.372 51.2897 204.833 51.4934V50.4187C204.63 50.3754 204.422 50.3542 204.215 50.3555ZM198.293 56.9655H199.529V50.4327H198.293V56.9655ZM198.904 48.8312C199.024 48.8341 199.143 48.8126 199.254 48.7681C199.366 48.7236 199.467 48.6569 199.551 48.5722C199.636 48.4875 199.703 48.3864 199.747 48.2752C199.792 48.1639 199.813 48.0448 199.81 47.925C199.812 47.807 199.79 47.6899 199.745 47.5809C199.7 47.4719 199.632 47.3735 199.547 47.2917C199.462 47.2099 199.361 47.1466 199.251 47.1057C199.14 47.0648 199.022 47.0472 198.904 47.054C198.787 47.0493 198.67 47.0683 198.56 47.1099C198.45 47.1516 198.35 47.215 198.265 47.2963C198.181 47.3777 198.113 47.4753 198.068 47.5834C198.022 47.6914 197.998 47.8076 197.998 47.925C197.996 48.0445 198.018 48.1632 198.063 48.274C198.108 48.3848 198.175 48.4855 198.259 48.57C198.344 48.6545 198.444 48.7212 198.555 48.7661C198.666 48.8109 198.785 48.8331 198.904 48.8312ZM190.749 50.4327L193.383 56.9655H194.612L197.338 50.4327H196.052L195.237 52.4909C194.823 53.5235 194.022 55.6589 194.022 55.6589C194.022 55.6589 193.264 53.5516 192.849 52.4909L192.083 50.4327H190.749ZM187.7 50.2361C187.277 50.2254 186.859 50.3216 186.483 50.5155C186.108 50.7095 185.787 50.9951 185.551 51.3459L185.431 50.4327H184.406V56.9655H185.635V53.081C185.624 52.8477 185.662 52.6147 185.747 52.3971C185.832 52.1796 185.962 51.9824 186.128 51.8186C186.295 51.6548 186.494 51.528 186.713 51.4466C186.931 51.3651 187.165 51.3308 187.398 51.3459C188.29 51.3459 188.894 51.8517 188.894 53.2004V56.9655H190.145V52.9054C190.145 51.1703 189.147 50.222 187.7 50.222V50.2361ZM183.015 48.6556V47.4544H177.149V56.9655H183.015V55.7643H178.421V52.7508H182.572V51.6129H178.421V48.6556H183.015ZM166.922 53.1723C166.921 52.9097 166.975 52.6499 167.079 52.4089C167.183 52.1679 167.336 51.9511 167.528 51.7718C167.72 51.5925 167.946 51.4547 168.194 51.3669C168.441 51.2791 168.704 51.2433 168.966 51.2616C169.22 51.2483 169.473 51.2887 169.711 51.3802C169.948 51.4717 170.163 51.6123 170.342 51.7926C170.521 51.973 170.66 52.1891 170.749 52.4268C170.839 52.6646 170.878 52.9186 170.863 53.1723H166.922ZM172.12 54.9916H170.926C170.764 55.352 170.495 55.6538 170.156 55.8561C169.817 56.0584 169.423 56.1515 169.029 56.1225C168.753 56.1362 168.477 56.0926 168.218 55.9947C167.96 55.8967 167.724 55.7464 167.526 55.5532C167.329 55.36 167.173 55.1281 167.069 54.8719C166.965 54.6157 166.915 54.3408 166.922 54.0644H172.064C172.11 53.819 172.128 53.5693 172.12 53.3198C172.139 52.9055 172.071 52.4917 171.921 52.1052C171.77 51.7187 171.54 51.3682 171.245 51.0762C170.951 50.7842 170.598 50.5574 170.21 50.4102C169.823 50.2631 169.408 50.199 168.994 50.222C168.105 50.268 167.269 50.655 166.658 51.3025C166.047 51.95 165.71 52.8081 165.717 53.698C165.723 54.588 166.072 55.4412 166.692 56.0799C167.312 56.7187 168.154 57.0938 169.043 57.127C169.721 57.1805 170.398 57.0007 170.96 56.6175C171.522 56.2343 171.936 55.6706 172.134 55.0197L172.12 54.9916ZM158.633 56.9655H159.862V53.081C159.854 52.846 159.895 52.6119 159.983 52.3939C160.071 52.1758 160.203 51.9786 160.372 51.815C160.541 51.6515 160.742 51.5252 160.963 51.4444C161.184 51.3636 161.419 51.33 161.654 51.3459C162.398 51.3459 163.15 51.7323 163.15 53.2004V56.9655H164.372V52.9054C164.372 51.1703 163.424 50.222 161.963 50.222C161.549 50.2096 161.138 50.3023 160.77 50.4915C160.401 50.6807 160.087 50.9601 159.855 51.3038V46.7871H158.626L158.633 56.9655ZM157.636 50.4327H156.35V48.6837H155.121V50.4187H153.835V51.4372H155.114V56.9655H156.343V51.4372H157.629L157.636 50.4327ZM149.326 47.7635C149.486 47.7603 149.646 47.7744 149.803 47.8056V46.7871C149.572 46.7425 149.337 46.7213 149.101 46.7238C147.801 46.7238 146.994 47.3209 146.994 48.8733V50.4187H145.806V51.4372H146.994V56.9655H148.216V51.4372H149.817V50.4187H148.216V49.1122C148.216 48.5502 148.216 47.7635 149.34 47.7635H149.326ZM139.583 53.6921C139.599 53.2495 139.746 52.8216 140.004 52.4617C140.262 52.1019 140.621 51.8261 141.035 51.6687C141.449 51.5113 141.9 51.4794 142.332 51.5768C142.764 51.6742 143.158 51.8968 143.464 52.2166C143.771 52.5364 143.976 52.9394 144.055 53.3752C144.134 53.8111 144.082 54.2605 143.907 54.6674C143.732 55.0742 143.441 55.4205 143.071 55.6631C142.7 55.9056 142.266 56.0337 141.824 56.0312C141.52 56.0335 141.22 55.9738 140.94 55.8558C140.661 55.7378 140.408 55.564 140.199 55.3449C139.989 55.1259 139.826 54.8663 139.72 54.5821C139.614 54.2979 139.567 53.995 139.583 53.6921ZM138.311 53.6921C138.303 54.3885 138.502 55.0716 138.883 55.6547C139.263 56.2378 139.809 56.6945 140.45 56.9669C141.091 57.2392 141.798 57.3148 142.483 57.184C143.167 57.0533 143.796 56.7222 144.292 56.2327C144.787 55.7432 145.126 55.1175 145.265 54.4351C145.404 53.7527 145.337 53.0443 145.072 52.4001C144.808 51.7558 144.358 51.2048 143.779 50.817C143.201 50.4292 142.52 50.2221 141.824 50.222C141.361 50.2025 140.899 50.2786 140.467 50.4455C140.034 50.6124 139.641 50.8666 139.312 51.1922C138.982 51.5178 138.723 51.9078 138.551 52.338C138.379 52.7681 138.297 53.229 138.311 53.6921ZM132.846 50.4187L130.844 55.7502L128.786 50.4187H127.466L130.275 57.2886L130.044 57.9138C129.978 58.2281 129.797 58.5069 129.538 58.6963C129.279 58.8857 128.958 58.9722 128.639 58.9393C128.36 58.9312 128.082 58.8959 127.81 58.834V59.8385C128.144 59.9319 128.489 59.9814 128.835 59.986C130.149 59.986 130.76 59.2835 131.189 58.2229L134.167 50.4187H132.846ZM126.285 50.3555C125.927 50.3248 125.569 50.4109 125.264 50.6008C124.959 50.7907 124.723 51.0743 124.593 51.4091L124.445 50.4187H123.349V56.9655H124.579V53.4533C124.579 52.0484 125.428 51.2897 126.89 51.4934V50.4187C126.686 50.3754 126.479 50.3542 126.271 50.3555H126.285ZM122.359 50.4187H121.066V48.6837H119.837V50.4187H118.566V51.4372H119.837V56.9655H121.066V51.4372H122.359V50.4187ZM115.271 57.127C116.873 57.127 117.891 56.3403 117.891 55.097C117.897 54.6469 117.735 54.2108 117.436 53.8742C117.137 53.5377 116.723 53.3249 116.276 53.2776L114.962 52.9826C114.576 52.8913 114.028 52.7438 114.028 52.1046C114.028 51.4653 114.498 51.1703 115.229 51.1703C115.388 51.1488 115.551 51.1601 115.706 51.2036C115.86 51.247 116.005 51.3217 116.13 51.423C116.255 51.5244 116.358 51.6502 116.432 51.7927C116.507 51.9353 116.552 52.0916 116.564 52.2521H117.758C117.716 51.0368 116.725 50.222 115.243 50.222C113.761 50.222 112.784 51.0088 112.784 52.2099C112.784 53.0529 113.255 53.7342 114.456 54.0012L115.608 54.2681C116.044 54.3594 116.62 54.535 116.62 55.2164C116.62 55.8978 116.1 56.1787 115.271 56.1787C114.442 56.1787 113.866 55.8064 113.803 55.1251H112.602C112.679 56.3403 113.747 57.127 115.271 57.127ZM110.038 56.9655H111.267V50.4327H110.038V56.9655ZM110.642 48.8312C110.762 48.8341 110.881 48.8126 110.992 48.7681C111.103 48.7236 111.204 48.6569 111.289 48.5722C111.374 48.4875 111.441 48.3864 111.485 48.2752C111.53 48.1639 111.551 48.0448 111.548 47.925C111.55 47.807 111.528 47.6899 111.483 47.5809C111.438 47.4719 111.37 47.3735 111.285 47.2917C111.2 47.2099 111.099 47.1466 110.988 47.1057C110.878 47.0648 110.76 47.0472 110.642 47.054C110.525 47.0493 110.408 47.0683 110.298 47.1099C110.188 47.1516 110.088 47.215 110.003 47.2963C109.919 47.3777 109.851 47.4753 109.805 47.5834C109.759 47.6914 109.736 47.8076 109.736 47.925C109.734 48.0445 109.756 48.1632 109.801 48.274C109.846 48.3848 109.913 48.4855 109.997 48.57C110.082 48.6545 110.182 48.7212 110.293 48.7661C110.404 48.8109 110.522 48.8331 110.642 48.8312ZM105.908 50.2361C105.485 50.2261 105.067 50.3225 104.691 50.5164C104.315 50.7104 103.995 50.9956 103.758 51.3459L103.639 50.4327H102.62V56.9655H103.849V53.081C103.838 52.8477 103.876 52.6147 103.961 52.3971C104.046 52.1796 104.176 51.9824 104.342 51.8186C104.509 51.6548 104.708 51.528 104.927 51.4466C105.146 51.3651 105.379 51.3308 105.613 51.3459C106.505 51.3459 107.109 51.8517 107.109 53.2004V56.9655H108.352V52.9054C108.352 51.1703 107.362 50.222 105.908 50.222V50.2361ZM99.6277 56.9655H100.857V50.4327H99.6277V56.9655ZM100.239 48.8312C100.361 48.8362 100.482 48.8158 100.596 48.7712C100.709 48.7267 100.812 48.6589 100.898 48.5724C100.984 48.4858 101.051 48.3823 101.095 48.2684C101.138 48.1545 101.158 48.0328 101.152 47.911C101.155 47.7933 101.134 47.6763 101.089 47.5674C101.045 47.4584 100.978 47.3599 100.894 47.278C100.809 47.1961 100.709 47.1327 100.598 47.0917C100.488 47.0507 100.37 47.0331 100.253 47.0399C100.136 47.0352 100.019 47.0542 99.9087 47.0959C99.799 47.1375 99.6988 47.2009 99.6141 47.2823C99.5295 47.3637 99.4622 47.4613 99.4162 47.5693C99.3703 47.6774 99.3466 47.7936 99.3467 47.911C99.3448 48.0305 99.367 48.1492 99.4118 48.26C99.4567 48.3708 99.5234 48.4714 99.6079 48.5559C99.6924 48.6405 99.7931 48.7071 99.9039 48.752C100.015 48.7969 100.133 48.819 100.253 48.8171L100.239 48.8312ZM96.5369 47.4544L93.2354 55.2304L89.9621 47.4544H88.7468V56.9655H90.0042V53.8817C90.0042 52.3996 89.9621 51.367 89.8707 50.2642L92.6103 56.6845H93.8115L96.6212 50.208C96.558 51.2757 96.5159 52.238 96.5159 53.8817V56.9655H97.7732V47.4684L96.5369 47.4544Z" fill="white"/>
<path d="M176.728 35.1899H175.436V33.4408H174.206V35.1899H172.935V36.2084H174.206V41.7226H175.436V36.1944H176.728V35.1899ZM167.182 37.9294C167.181 37.6669 167.235 37.407 167.339 37.166C167.443 36.9251 167.596 36.7082 167.788 36.5289C167.98 36.3496 168.206 36.2118 168.454 36.124C168.701 36.0363 168.964 36.0004 169.226 36.0188C169.48 36.0055 169.733 36.0459 169.97 36.1374C170.208 36.2289 170.423 36.3694 170.602 36.5498C170.781 36.7301 170.92 36.9462 171.009 37.184C171.099 37.4217 171.138 37.6757 171.122 37.9294H167.182ZM172.38 39.7558H171.179C171.017 40.1161 170.748 40.4176 170.409 40.6189C170.069 40.8201 169.676 40.9112 169.282 40.8797C169.006 40.8912 168.731 40.8463 168.474 40.7475C168.216 40.6488 167.981 40.4985 167.784 40.3057C167.587 40.1129 167.431 39.8818 167.326 39.6266C167.221 39.3713 167.17 39.0974 167.175 38.8215H172.317C172.41 38.3653 172.402 37.8942 172.295 37.4411C172.188 36.988 171.983 36.5637 171.694 36.1979C171.406 35.8322 171.042 35.5336 170.626 35.3231C170.211 35.1126 169.755 34.9953 169.289 34.9791C168.84 34.9651 168.393 35.0456 167.977 35.2156C167.561 35.3856 167.185 35.6413 166.875 35.9659C166.564 36.2905 166.325 36.6769 166.173 37.0999C166.022 37.5229 165.961 37.973 165.995 38.4211C165.96 38.8704 166.02 39.3219 166.171 39.7465C166.322 40.171 166.561 40.5591 166.871 40.8856C167.182 41.2121 167.558 41.4697 167.974 41.6417C168.391 41.8137 168.839 41.8963 169.289 41.8842C169.968 41.938 170.645 41.7585 171.209 41.3753C171.772 40.9921 172.188 40.4282 172.387 39.7768L172.38 39.7558ZM163.389 41.7296H164.618V35.1899H163.389V41.7296ZM163.993 33.5953C164.112 33.5982 164.232 33.5767 164.343 33.5322C164.454 33.4877 164.555 33.4211 164.64 33.3364C164.725 33.2516 164.791 33.1506 164.836 33.0393C164.88 32.9281 164.902 32.809 164.899 32.6892C164.901 32.5712 164.879 32.4541 164.833 32.3451C164.788 32.2361 164.721 32.1376 164.636 32.0559C164.551 31.9741 164.45 31.9108 164.339 31.8699C164.228 31.829 164.11 31.8114 163.993 31.8181C163.876 31.8144 163.76 31.8341 163.651 31.8762C163.542 31.9183 163.442 31.9818 163.359 32.0631C163.275 32.1444 163.208 32.2417 163.162 32.3492C163.117 32.4568 163.093 32.5724 163.094 32.6892C163.092 32.8081 163.114 32.9262 163.158 33.0365C163.202 33.1468 163.269 33.2472 163.352 33.3316C163.436 33.416 163.536 33.4829 163.646 33.5281C163.756 33.5734 163.874 33.5963 163.993 33.5953ZM161.801 35.1337C161.444 35.1035 161.087 35.1898 160.783 35.3798C160.479 35.5697 160.245 35.8531 160.115 36.1873L159.982 35.1899H158.9V41.7226H160.157V38.2104C160.157 36.8055 161 36.0469 162.468 36.2576V35.1899C162.262 35.1502 162.053 35.129 161.843 35.1267L161.801 35.1337ZM152.367 37.9364C152.367 37.6739 152.42 37.414 152.524 37.1731C152.629 36.9321 152.781 36.7152 152.973 36.5359C153.165 36.3567 153.392 36.2188 153.639 36.1311C153.887 36.0433 154.149 36.0074 154.411 36.0258C154.665 36.0125 154.919 36.0529 155.156 36.1444C155.393 36.2359 155.608 36.3764 155.787 36.5568C155.966 36.7371 156.105 36.9533 156.195 37.191C156.285 37.4287 156.323 37.6828 156.308 37.9364H152.367ZM157.572 39.7628H156.371C156.209 40.1225 155.94 40.4234 155.601 40.6245C155.261 40.8257 154.868 40.9172 154.475 40.8867C154.199 40.8993 153.923 40.855 153.665 40.7567C153.407 40.6584 153.172 40.508 152.974 40.315C152.777 40.1221 152.621 39.8905 152.516 39.6348C152.412 39.3791 152.361 39.1047 152.367 38.8285H157.509C157.555 38.5831 157.574 38.3334 157.565 38.0839C157.585 37.6696 157.517 37.2558 157.366 36.8694C157.216 36.4829 156.985 36.1323 156.691 35.8404C156.396 35.5484 156.044 35.3215 155.656 35.1744C155.268 35.0272 154.854 34.9631 154.439 34.9862C153.991 34.972 153.544 35.0526 153.128 35.2226C152.713 35.3927 152.337 35.6484 152.027 35.9732C151.717 36.2979 151.479 36.6844 151.328 37.1074C151.177 37.5304 151.117 37.9804 151.152 38.4281C151.117 38.8811 151.178 39.3363 151.332 39.7639C151.485 40.1915 151.728 40.5817 152.043 40.9088C152.358 41.236 152.739 41.4926 153.16 41.662C153.582 41.8313 154.035 41.9094 154.489 41.8912C155.167 41.9437 155.844 41.7637 156.407 41.3807C156.97 40.9977 157.386 40.4346 157.586 39.7839L157.572 39.7628ZM150.611 35.1899H149.319V33.4408H148.089V35.1899H146.811V36.2084H148.082V41.7226H149.312V36.1944H150.604L150.611 35.1899ZM143.523 41.8982C145.125 41.8982 146.144 41.1185 146.144 39.8682C146.15 39.4181 145.987 38.982 145.688 38.6454C145.389 38.3088 144.976 38.0961 144.528 38.0488L143.207 37.7538C142.828 37.6625 142.28 37.515 142.28 36.8757C142.28 36.2365 142.751 35.9415 143.474 35.9415C144.198 35.9415 144.781 36.3419 144.809 37.0233H146.01C145.968 35.808 144.978 34.9932 143.495 34.9932C142.013 34.9932 141.03 35.7799 141.03 36.9811C141.03 37.824 141.507 38.5054 142.709 38.7723L143.861 39.0393C144.289 39.1306 144.872 39.3062 144.872 39.9876C144.872 40.6689 144.352 40.9499 143.523 40.9499C142.695 40.9499 142.119 40.5847 142.055 39.9033H140.854C140.931 41.1185 141.992 41.8982 143.523 41.8982ZM138.283 41.7226H139.52V35.1899H138.283V41.7226ZM138.894 33.5883C139.014 33.5893 139.133 33.566 139.244 33.5198C139.354 33.4736 139.454 33.4054 139.538 33.3193C139.621 33.2333 139.686 33.1312 139.729 33.0193C139.772 32.9073 139.791 32.7878 139.786 32.6681C139.789 32.5501 139.766 32.433 139.721 32.324C139.676 32.215 139.609 32.1166 139.523 32.0348C139.438 31.953 139.337 31.8897 139.227 31.8488C139.116 31.8079 138.998 31.7903 138.88 31.7971C138.763 31.7933 138.647 31.813 138.537 31.855C138.428 31.897 138.328 31.9605 138.244 32.0416C138.159 32.1228 138.092 32.2201 138.046 32.3276C137.999 32.4352 137.975 32.551 137.974 32.6681C137.972 32.7876 137.994 32.9063 138.039 33.0171C138.084 33.1279 138.151 33.2285 138.235 33.3131C138.32 33.3976 138.42 33.4643 138.531 33.5091C138.642 33.554 138.761 33.5762 138.88 33.5743L138.894 33.5883ZM134.146 34.9791C133.723 34.9699 133.304 35.0674 132.928 35.2626C132.553 35.4578 132.232 35.7444 131.996 36.096L131.891 35.1899H130.872V41.7086H132.102V37.8381C132.088 37.604 132.125 37.3696 132.209 37.1507C132.293 36.9318 132.423 36.7333 132.589 36.5685C132.756 36.4037 132.956 36.2763 133.176 36.1948C133.396 36.1133 133.631 36.0797 133.865 36.096C134.75 36.096 135.361 36.5948 135.361 37.9435V41.7086H136.604V37.6625C136.604 35.9274 135.614 34.9791 134.16 34.9791H134.146ZM127.88 41.7086H129.109V35.1899H127.88V41.7086ZM128.484 33.5743C128.604 33.5782 128.724 33.5574 128.835 33.5132C128.947 33.4691 129.049 33.4025 129.134 33.3175C129.218 33.2326 129.285 33.1311 129.329 33.0194C129.373 32.9077 129.394 32.7882 129.39 32.6681C129.392 32.5501 129.37 32.433 129.325 32.324C129.28 32.215 129.212 32.1166 129.127 32.0348C129.042 31.953 128.941 31.8897 128.831 31.8488C128.72 31.8079 128.602 31.7903 128.484 31.7971C128.367 31.7933 128.251 31.813 128.142 31.8551C128.033 31.8972 127.934 31.9608 127.85 32.042C127.766 32.1233 127.699 32.2206 127.654 32.3282C127.608 32.4357 127.585 32.5513 127.585 32.6681C127.583 32.787 127.605 32.9051 127.649 33.0154C127.694 33.1258 127.76 33.2261 127.844 33.3105C127.927 33.395 128.027 33.4618 128.137 33.5071C128.247 33.5524 128.365 33.5752 128.484 33.5743ZM123.848 34.9791C123.405 34.9656 122.969 35.0839 122.594 35.3191C122.218 35.5542 121.921 35.8955 121.741 36.2997C121.566 35.9301 121.296 35.6135 120.959 35.3822C120.622 35.151 120.229 35.0133 119.821 34.9833C119.413 34.9533 119.005 35.032 118.637 35.2115C118.27 35.3909 117.957 35.6647 117.73 36.0047L117.624 35.1899H116.529V41.7226H117.758V37.7046C117.744 37.4935 117.774 37.2818 117.845 37.0825C117.916 36.8833 118.027 36.7005 118.171 36.5454C118.315 36.3904 118.489 36.2662 118.682 36.1805C118.876 36.0948 119.085 36.0493 119.296 36.0469C119.504 36.0372 119.711 36.0738 119.903 36.1539C120.095 36.2341 120.267 36.3558 120.406 36.5104C120.545 36.665 120.648 36.8485 120.707 37.0477C120.767 37.247 120.782 37.4569 120.75 37.6625V41.7226H121.965V37.7257C121.949 37.5099 121.977 37.293 122.049 37.0889C122.121 36.8847 122.234 36.6977 122.382 36.5398C122.53 36.3819 122.71 36.2565 122.909 36.1716C123.108 36.0868 123.322 36.0443 123.539 36.0469C124.382 36.0469 124.944 36.5386 124.944 37.6625V41.7226H126.159V37.3956C126.192 37.0779 126.156 36.7567 126.052 36.4545C125.949 36.1524 125.78 35.8765 125.559 35.6463C125.337 35.4162 125.068 35.2372 124.77 35.1219C124.472 35.0067 124.153 34.9579 123.834 34.9791H123.848ZM109.406 38.4492C109.426 38.0095 109.575 37.5855 109.834 37.2294C110.093 36.8733 110.45 36.6007 110.862 36.4453C111.274 36.2898 111.722 36.2583 112.151 36.3546C112.581 36.4508 112.973 36.6707 113.279 36.9871C113.585 37.3035 113.792 37.7025 113.874 38.135C113.955 38.5675 113.909 39.0145 113.74 39.4209C113.571 39.8273 113.287 40.1753 112.922 40.4221C112.558 40.6688 112.129 40.8035 111.689 40.8094C111.386 40.8108 111.086 40.7504 110.808 40.6319C110.529 40.5135 110.277 40.3395 110.068 40.1206C109.859 39.9016 109.697 39.6424 109.592 39.3586C109.486 39.0749 109.44 38.7726 109.455 38.4703L109.406 38.4492ZM108.176 38.4703C108.168 39.1667 108.367 39.8498 108.748 40.4329C109.129 41.016 109.674 41.4728 110.315 41.7451C110.956 42.0174 111.664 42.093 112.348 41.9622C113.032 41.8315 113.661 41.5004 114.157 41.0109C114.652 40.5214 114.991 39.8957 115.13 39.2133C115.269 38.5309 115.202 37.8225 114.937 37.1783C114.673 36.5341 114.223 35.983 113.644 35.5952C113.066 35.2074 112.385 35.0003 111.689 35.0002C111.226 34.9807 110.764 35.0568 110.332 35.2237C109.9 35.3906 109.506 35.6448 109.177 35.9704C108.847 36.296 108.588 36.6861 108.416 37.1162C108.244 37.5463 108.163 38.0072 108.176 38.4703ZM112.932 34.3961C113.028 34.4019 113.124 34.388 113.214 34.3552C113.304 34.3225 113.386 34.2717 113.456 34.2059C113.526 34.1401 113.581 34.0607 113.619 33.9726C113.657 33.8845 113.677 33.7896 113.677 33.6937C113.687 33.5893 113.675 33.484 113.642 33.3845C113.609 33.285 113.555 33.1935 113.485 33.1159C113.415 33.0383 113.329 32.9763 113.233 32.9338C113.137 32.8914 113.033 32.8695 112.928 32.8695C112.824 32.8695 112.72 32.8914 112.624 32.9338C112.528 32.9763 112.442 33.0383 112.372 33.1159C112.301 33.1935 112.248 33.285 112.215 33.3845C112.182 33.484 112.17 33.5893 112.18 33.6937C112.18 33.7902 112.2 33.8857 112.238 33.9743C112.276 34.0629 112.333 34.1427 112.403 34.2086C112.474 34.2745 112.557 34.3252 112.648 34.3574C112.739 34.3897 112.836 34.4029 112.932 34.3961ZM110.445 34.3961C110.639 34.4019 110.826 34.3315 110.968 34.2001C111.11 34.0687 111.195 33.8868 111.204 33.6937C111.204 33.4925 111.124 33.2995 110.982 33.1572C110.84 33.015 110.647 32.935 110.445 32.935C110.244 32.935 110.051 33.015 109.909 33.1572C109.767 33.2995 109.687 33.4925 109.687 33.6937C109.696 33.8868 109.78 34.0687 109.922 34.2001C110.064 34.3315 110.252 34.4019 110.445 34.3961ZM105.648 44.6518H106.877V35.1899H105.648V44.6518ZM106.252 33.5953C106.372 33.5982 106.491 33.5767 106.602 33.5322C106.713 33.4877 106.814 33.4211 106.899 33.3364C106.984 33.2516 107.05 33.1506 107.095 33.0393C107.139 32.9281 107.161 32.809 107.158 32.6892C107.16 32.5712 107.138 32.4541 107.093 32.3451C107.047 32.2361 106.98 32.1376 106.895 32.0559C106.81 31.9741 106.709 31.9108 106.598 31.8699C106.487 31.829 106.37 31.8114 106.252 31.8181C106.135 31.8144 106.018 31.8341 105.909 31.8761C105.799 31.9181 105.7 31.9816 105.615 32.0627C105.531 32.1439 105.463 32.2411 105.417 32.3487C105.371 32.4563 105.346 32.5721 105.346 32.6892C105.344 32.8087 105.366 32.9274 105.411 33.0382C105.456 33.149 105.522 33.2496 105.607 33.3341C105.691 33.4187 105.792 33.4853 105.903 33.5302C106.014 33.5751 106.132 33.5972 106.252 33.5953ZM102.648 41.7296H103.877V31.5442H102.648V41.7296ZM99.6628 41.7296H100.892V35.1899H99.6628V41.7296ZM100.274 33.5953C100.394 33.5955 100.512 33.5713 100.622 33.5241C100.732 33.4769 100.831 33.4078 100.913 33.321C100.995 33.2342 101.059 33.1315 101.1 33.0192C101.141 32.907 101.159 32.7875 101.152 32.6681C101.155 32.5505 101.134 32.4335 101.089 32.3245C101.045 32.2155 100.978 32.117 100.894 32.0351C100.809 31.9532 100.709 31.8898 100.598 31.8488C100.488 31.8078 100.37 31.7902 100.253 31.7971C100.136 31.7933 100.019 31.813 99.9098 31.855C99.8005 31.897 99.7007 31.9605 99.6163 32.0416C99.5318 32.1228 99.4645 32.2201 99.4182 32.3276C99.3719 32.4352 99.3476 32.551 99.3467 32.6681C99.3448 32.7876 99.367 32.9063 99.4118 33.0171C99.4567 33.1279 99.5234 33.2285 99.6079 33.3131C99.6924 33.3976 99.7931 33.4643 99.9039 33.5091C100.015 33.554 100.133 33.5762 100.253 33.5743L100.274 33.5953ZM96.5369 32.2115L93.2354 39.9876L89.9621 32.2115H88.7468V41.7086H90.0042V38.6389C90.0042 37.1567 89.9621 36.1241 89.8707 35.0283L92.6103 41.4416H93.8115L96.6212 34.9651C96.558 36.0328 96.5159 36.9952 96.5159 38.6389V41.7086H97.7732V32.2256L96.5369 32.2115Z" fill="white"/>
<path d="M199.705 23.2061C199.688 22.8998 199.733 22.5933 199.839 22.3053C199.944 22.0173 200.107 21.7538 200.318 21.531C200.529 21.3081 200.783 21.1306 201.064 21.0093C201.346 20.888 201.65 20.8254 201.956 20.8254C202.263 20.8254 202.567 20.888 202.848 21.0093C203.13 21.1306 203.384 21.3081 203.595 21.531C203.805 21.7538 203.968 22.0173 204.074 22.3053C204.179 22.5933 204.225 22.8998 204.208 23.2061C204.225 23.5123 204.179 23.8188 204.074 24.1068C203.968 24.3948 203.805 24.6583 203.595 24.8812C203.384 25.104 203.13 25.2815 202.848 25.4028C202.567 25.5241 202.263 25.5867 201.956 25.5867C201.65 25.5867 201.346 25.5241 201.064 25.4028C200.783 25.2815 200.529 25.104 200.318 24.8812C200.107 24.6583 199.944 24.3948 199.839 24.1068C199.733 23.8188 199.688 23.5123 199.705 23.2061ZM198.427 23.2061C198.417 23.9027 198.615 24.5865 198.994 25.1706C199.374 25.7546 199.919 26.2124 200.56 26.4858C201.201 26.7592 201.909 26.8358 202.593 26.7059C203.278 26.5759 203.908 26.2454 204.404 25.7562C204.901 25.267 205.24 24.6413 205.38 23.9587C205.519 23.2761 205.452 22.5674 205.188 21.9228C204.924 21.2781 204.474 20.7267 203.895 20.3385C203.317 19.9504 202.636 19.7431 201.939 19.743C201.477 19.7236 201.015 19.7994 200.584 19.9659C200.152 20.1324 199.759 20.386 199.43 20.7108C199.1 21.0357 198.841 21.4248 198.669 21.8541C198.496 22.2834 198.414 22.7436 198.427 23.2061ZM203.189 19.1319C203.338 19.1288 203.482 19.0815 203.603 18.996C203.724 18.9105 203.817 18.7907 203.87 18.652C203.923 18.5133 203.933 18.362 203.899 18.2175C203.865 18.073 203.789 17.9419 203.68 17.8411C203.571 17.7403 203.434 17.6743 203.288 17.6516C203.141 17.6289 202.991 17.6506 202.857 17.7138C202.722 17.777 202.61 17.879 202.534 18.0065C202.458 18.134 202.422 18.2813 202.431 18.4294C202.43 18.5266 202.45 18.6228 202.489 18.7119C202.528 18.801 202.584 18.8811 202.656 18.9471C202.727 19.0131 202.811 19.0636 202.903 19.0954C202.995 19.1273 203.092 19.1397 203.189 19.1319ZM200.695 19.1319C200.844 19.1302 200.989 19.0841 201.111 18.9994C201.233 18.9148 201.328 18.7954 201.381 18.6568C201.435 18.5182 201.446 18.3666 201.413 18.2216C201.38 18.0766 201.304 17.9449 201.196 17.8433C201.087 17.7418 200.95 17.6751 200.804 17.6519C200.657 17.6287 200.506 17.6499 200.372 17.713C200.237 17.7761 200.124 17.878 200.048 18.0057C199.972 18.1334 199.935 18.281 199.944 18.4294C199.944 18.526 199.963 18.6215 200.002 18.7101C200.04 18.7987 200.096 18.8785 200.167 18.9444C200.237 19.0103 200.321 19.061 200.412 19.0932C200.503 19.1255 200.599 19.1386 200.695 19.1319ZM195.898 26.4654H197.127V19.9327H195.898V26.4654ZM196.502 18.3311C196.62 18.3311 196.737 18.3076 196.846 18.2618C196.954 18.216 197.053 18.1489 197.135 18.0645C197.218 17.98 197.283 17.8799 197.326 17.7701C197.369 17.6603 197.39 17.5429 197.387 17.4249C197.389 17.307 197.367 17.1898 197.322 17.0808C197.276 16.9719 197.209 16.8734 197.124 16.7916C197.039 16.7099 196.938 16.6465 196.827 16.6056C196.717 16.5647 196.599 16.5471 196.481 16.5539C196.364 16.5501 196.248 16.5699 196.139 16.612C196.03 16.6541 195.931 16.7176 195.847 16.7989C195.763 16.8801 195.696 16.9774 195.651 17.085C195.605 17.1925 195.582 17.3082 195.582 17.4249C195.579 17.5459 195.601 17.6663 195.646 17.7785C195.691 17.8907 195.759 17.9924 195.845 18.0774C195.932 18.1623 196.034 18.2286 196.147 18.2723C196.26 18.3159 196.381 18.3359 196.502 18.3311ZM194.31 19.8765C193.954 19.8434 193.596 19.9278 193.292 20.1167C192.987 20.3056 192.753 20.5888 192.624 20.9231L192.47 19.9327H191.388V26.4654H192.617V22.9532C192.617 21.5483 193.46 20.7897 194.928 21.0004V19.9467C194.722 19.9098 194.513 19.891 194.303 19.8905L194.31 19.8765ZM184.827 22.7003C184.825 22.4385 184.876 22.1789 184.978 21.9378C185.081 21.6967 185.231 21.4792 185.421 21.2987C185.611 21.1182 185.835 20.9786 186.081 20.8886C186.327 20.7987 186.589 20.7602 186.85 20.7756C187.104 20.7634 187.357 20.8046 187.594 20.8965C187.83 20.9884 188.045 21.1289 188.224 21.3091C188.402 21.4892 188.541 21.7048 188.632 21.9421C188.722 22.1793 188.761 22.4329 188.747 22.6863L184.827 22.7003ZM190.025 24.5267H188.831C188.669 24.8863 188.4 25.1873 188.061 25.3884C187.721 25.5895 187.328 25.6811 186.935 25.6506C186.658 25.6642 186.382 25.6207 186.124 25.5227C185.865 25.4247 185.63 25.2745 185.432 25.0813C185.234 24.8881 185.078 24.6561 184.974 24.3999C184.87 24.1437 184.82 23.8688 184.827 23.5924H189.969C190.015 23.347 190.034 23.0973 190.025 22.8478C190.045 22.4338 189.977 22.0203 189.826 21.6341C189.676 21.248 189.445 20.8979 189.151 20.6065C188.856 20.315 188.503 20.0888 188.115 19.9425C187.728 19.7961 187.313 19.733 186.899 19.7571C186.451 19.743 186.005 19.8234 185.59 19.993C185.175 20.1627 184.8 20.4178 184.49 20.7417C184.18 21.0657 183.942 21.4513 183.79 21.8734C183.639 22.2956 183.578 22.7448 183.612 23.192C183.577 23.6453 183.638 24.1008 183.792 24.5287C183.945 24.9566 184.187 25.3472 184.503 25.6749C184.818 26.0026 185.198 26.26 185.62 26.4301C186.042 26.6002 186.494 26.6793 186.949 26.6621C187.627 26.7142 188.302 26.5339 188.864 26.1509C189.426 25.7679 189.84 25.2049 190.039 24.5548L190.025 24.5267ZM183.106 19.9748H181.821V18.1976H180.592V19.9327H179.313V20.9582H180.592V26.4654H181.821V20.9582H183.106V19.9748ZM176.026 26.6902C177.62 26.6902 178.646 25.9034 178.646 24.6601C178.652 24.2093 178.49 23.7723 178.191 23.4346C177.892 23.0969 177.478 22.8827 177.03 22.8338L175.71 22.5387C175.33 22.4474 174.775 22.2999 174.775 21.6607C174.775 21.0215 175.253 20.7335 175.976 20.7335C176.7 20.7335 177.283 21.1338 177.311 21.8152H178.512C178.47 20.6 177.473 19.7852 175.991 19.7852C174.508 19.7852 173.532 20.5649 173.532 21.766C173.532 22.609 174.01 23.2904 175.211 23.5573L176.363 23.8242C176.791 23.9155 177.374 24.0911 177.374 24.7725C177.374 25.4539 176.855 25.7419 176.026 25.7419C175.197 25.7419 174.621 25.3696 174.558 24.6882H173.356C173.427 25.9034 174.494 26.6902 176.026 26.6902ZM170.785 26.5076H172.015V19.9748H170.785V26.5076ZM171.397 18.3311C171.516 18.334 171.635 18.3125 171.747 18.268C171.858 18.2235 171.959 18.1568 172.044 18.0721C172.128 17.9874 172.195 17.8863 172.24 17.7751C172.284 17.6639 172.306 17.5447 172.303 17.4249C172.305 17.307 172.283 17.1898 172.237 17.0808C172.192 16.9719 172.125 16.8734 172.04 16.7916C171.955 16.7099 171.854 16.6465 171.743 16.6056C171.632 16.5647 171.514 16.5471 171.397 16.5539C171.279 16.5502 171.163 16.5699 171.054 16.6119C170.944 16.6539 170.844 16.7173 170.76 16.7985C170.675 16.8797 170.608 16.9769 170.562 17.0845C170.516 17.1921 170.491 17.3078 170.49 17.4249C170.488 17.5445 170.511 17.6631 170.555 17.7739C170.6 17.8847 170.667 17.9854 170.752 18.0699C170.836 18.1544 170.937 18.2211 171.048 18.266C171.158 18.3109 171.277 18.333 171.397 18.3311ZM166.662 19.736C166.239 19.7254 165.821 19.8215 165.445 20.0155C165.069 20.2095 164.749 20.4951 164.513 20.8458L164.372 19.9327H163.354V26.4514H164.583V22.602C164.568 22.3673 164.604 22.1322 164.688 21.9124C164.771 21.6926 164.901 21.4933 165.068 21.3277C165.235 21.162 165.435 21.034 165.656 20.9521C165.876 20.8703 166.111 20.8364 166.346 20.8529C167.231 20.8529 167.842 21.3516 167.842 22.7003V26.4654H169.085V22.4193C169.085 20.6913 168.095 19.743 166.641 19.743L166.662 19.736ZM160.361 26.4654H161.59V19.9327H160.361V26.4654ZM160.979 18.3311C161.099 18.334 161.218 18.3125 161.329 18.268C161.441 18.2235 161.542 18.1568 161.626 18.0721C161.711 17.9874 161.778 17.8863 161.822 17.7751C161.867 17.6639 161.888 17.5447 161.885 17.4249C161.888 17.307 161.865 17.1898 161.82 17.0808C161.775 16.9719 161.708 16.8734 161.622 16.7916C161.537 16.7099 161.436 16.6465 161.326 16.6056C161.215 16.5647 161.097 16.5471 160.979 16.5539C160.863 16.5501 160.746 16.5699 160.637 16.612C160.528 16.6541 160.429 16.7176 160.345 16.7989C160.261 16.8801 160.195 16.9774 160.149 17.085C160.104 17.1925 160.08 17.3082 160.08 17.4249C160.078 17.5439 160.1 17.662 160.145 17.7723C160.189 17.8826 160.255 17.9829 160.339 18.0674C160.423 18.1518 160.522 18.2186 160.632 18.2639C160.742 18.3092 160.86 18.332 160.979 18.3311ZM156.343 19.736C155.901 19.7209 155.465 19.8378 155.089 20.0717C154.714 20.3057 154.417 20.6461 154.236 21.0496C154.064 20.6395 153.768 20.2929 153.391 20.0577C153.014 19.8224 152.572 19.71 152.128 19.736C151.748 19.7231 151.37 19.8104 151.034 19.9892C150.697 20.1679 150.413 20.4318 150.211 20.7545L150.127 19.9256H149.031V26.4795H150.26V22.4685C150.246 22.2568 150.275 22.0444 150.345 21.8443C150.416 21.6441 150.527 21.4605 150.671 21.3047C150.815 21.1489 150.989 21.024 151.183 20.9379C151.377 20.8517 151.586 20.8061 151.798 20.8037C152.006 20.794 152.213 20.8306 152.405 20.9108C152.597 20.9909 152.769 21.1127 152.908 21.2673C153.047 21.4218 153.15 21.6053 153.21 21.8046C153.269 22.0038 153.284 22.2138 153.252 22.4193V26.4795H154.468V22.4825C154.451 22.2668 154.48 22.0499 154.551 21.8457C154.623 21.6415 154.737 21.4545 154.885 21.2966C155.033 21.1387 155.212 21.0133 155.411 20.9285C155.61 20.8436 155.825 20.8011 156.041 20.8037C156.884 20.8037 157.446 21.2954 157.446 22.4193V26.4795H158.661V22.1524C158.695 21.8353 158.658 21.5148 158.555 21.2132C158.452 20.9116 158.284 20.6361 158.063 20.406C157.842 20.176 157.574 19.9968 157.277 19.8811C156.98 19.7654 156.661 19.7158 156.343 19.736ZM141.894 23.2061C141.877 22.8998 141.922 22.5933 142.028 22.3053C142.133 22.0173 142.296 21.7538 142.507 21.531C142.718 21.3081 142.972 21.1306 143.253 21.0093C143.535 20.888 143.838 20.8254 144.145 20.8254C144.452 20.8254 144.755 20.888 145.037 21.0093C145.319 21.1306 145.573 21.3081 145.783 21.531C145.994 21.7538 146.157 22.0173 146.263 22.3053C146.368 22.5933 146.414 22.8998 146.397 23.2061C146.414 23.5123 146.368 23.8188 146.263 24.1068C146.157 24.3948 145.994 24.6583 145.783 24.8812C145.573 25.104 145.319 25.2815 145.037 25.4028C144.755 25.5241 144.452 25.5867 144.145 25.5867C143.838 25.5867 143.535 25.5241 143.253 25.4028C142.972 25.2815 142.718 25.104 142.507 24.8812C142.296 24.6583 142.133 24.3948 142.028 24.1068C141.922 23.8188 141.877 23.5123 141.894 23.2061ZM140.615 23.2061C140.606 23.9027 140.803 24.5865 141.183 25.1706C141.563 25.7546 142.108 26.2124 142.749 26.4858C143.39 26.7592 144.098 26.8358 144.782 26.7059C145.467 26.5759 146.097 26.2454 146.593 25.7562C147.089 25.267 147.429 24.6413 147.568 23.9587C147.708 23.2761 147.641 22.5674 147.377 21.9228C147.113 21.2781 146.663 20.7267 146.084 20.3385C145.505 19.9504 144.824 19.7431 144.128 19.743C143.665 19.7236 143.204 19.7994 142.772 19.9659C142.341 20.1324 141.948 20.386 141.619 20.7108C141.289 21.0357 141.03 21.4248 140.857 21.8541C140.685 22.2834 140.602 22.7436 140.615 23.2061ZM145.371 19.1319C145.52 19.1302 145.664 19.0841 145.787 18.9994C145.909 18.9148 146.003 18.7954 146.057 18.6568C146.111 18.5182 146.122 18.3666 146.089 18.2216C146.056 18.0766 145.98 17.9449 145.871 17.8433C145.763 17.7418 145.626 17.6751 145.479 17.6519C145.332 17.6287 145.182 17.6499 145.047 17.713C144.912 17.7761 144.8 17.878 144.723 18.0057C144.647 18.1334 144.611 18.281 144.619 18.4294C144.619 18.526 144.639 18.6215 144.677 18.7101C144.715 18.7987 144.772 18.8785 144.842 18.9444C144.913 19.0103 144.996 19.061 145.087 19.0932C145.178 19.1255 145.275 19.1386 145.371 19.1319ZM142.884 19.1319C143.033 19.1288 143.177 19.0815 143.298 18.996C143.419 18.9105 143.512 18.7907 143.565 18.652C143.618 18.5133 143.628 18.362 143.594 18.2175C143.56 18.073 143.484 17.9419 143.375 17.8411C143.266 17.7403 143.13 17.6743 142.983 17.6516C142.836 17.6289 142.686 17.6506 142.552 17.7138C142.418 17.777 142.305 17.879 142.229 18.0065C142.153 18.134 142.117 18.2813 142.126 18.4294C142.125 18.5266 142.145 18.6228 142.184 18.7119C142.223 18.801 142.28 18.8811 142.351 18.9471C142.422 19.0131 142.506 19.0636 142.598 19.0954C142.69 19.1273 142.787 19.1397 142.884 19.1319ZM140.166 19.9327H138.873V18.1976H137.679V19.9327H136.408V20.9582H137.679V26.4654H138.908V20.9582H140.201L140.166 19.9327ZM133.078 26.648C134.68 26.648 135.698 25.8613 135.698 24.618C135.706 24.1667 135.544 23.7289 135.245 23.3908C134.946 23.0527 134.532 22.839 134.083 22.7916L132.762 22.4966C132.376 22.4053 131.828 22.2578 131.828 21.6185C131.828 20.9793 132.298 20.6913 133.029 20.6913C133.76 20.6913 134.329 21.0917 134.357 21.7731H135.572C135.572 20.5578 134.553 19.736 133.071 19.736C131.589 19.736 130.606 20.5157 130.606 21.7169C130.606 22.5598 131.083 23.2412 132.284 23.5081L133.436 23.775C133.872 23.8664 134.448 24.042 134.448 24.7233C134.448 25.4047 133.928 25.6927 133.099 25.6927C132.27 25.6927 131.694 25.3204 131.631 24.639H130.43C130.507 25.8543 131.575 26.641 133.099 26.641L133.078 26.648ZM127.845 26.4654H129.074V19.9327H127.845V26.4654ZM128.47 18.3311C128.59 18.334 128.709 18.3125 128.82 18.268C128.932 18.2235 129.033 18.1568 129.117 18.0721C129.202 17.9874 129.269 17.8863 129.313 17.7751C129.358 17.6639 129.379 17.5447 129.376 17.4249C129.378 17.307 129.356 17.1898 129.311 17.0808C129.266 16.9719 129.198 16.8734 129.113 16.7916C129.028 16.7099 128.927 16.6465 128.817 16.6056C128.706 16.5647 128.588 16.5471 128.47 16.5539C128.353 16.5502 128.236 16.5699 128.127 16.6119C128.018 16.6539 127.918 16.7173 127.834 16.7985C127.749 16.8797 127.682 16.9769 127.635 17.0845C127.589 17.1921 127.565 17.3078 127.564 17.4249C127.562 17.5445 127.584 17.6631 127.629 17.7739C127.674 17.8847 127.741 17.9854 127.825 18.0699C127.91 18.1544 128.01 18.2211 128.121 18.266C128.232 18.3109 128.351 18.333 128.47 18.3311ZM126.279 19.8765C125.922 19.8434 125.564 19.9278 125.26 20.1167C124.956 20.3056 124.721 20.5888 124.593 20.9231L124.438 19.9327H123.363V26.4654H124.593V22.9532C124.593 21.5483 125.436 20.7897 126.904 21.0004V19.9467C126.697 19.9098 126.488 19.891 126.279 19.8905V19.8765ZM118.214 25.5452C116.957 25.5452 116.107 24.611 116.107 23.2061C116.074 22.9105 116.105 22.6113 116.196 22.3283C116.287 22.0452 116.437 21.7846 116.636 21.5637C116.835 21.3428 117.079 21.1665 117.351 21.0464C117.623 20.9263 117.917 20.8651 118.214 20.8669C118.509 20.8655 118.801 20.926 119.071 21.0444C119.341 21.1628 119.583 21.3365 119.781 21.5543C119.98 21.7721 120.131 22.0292 120.224 22.3088C120.317 22.5885 120.35 22.8846 120.322 23.178C120.322 24.5829 119.465 25.5452 118.172 25.5452H118.214ZM120.561 19.9256L120.455 20.9793C120.192 20.576 119.828 20.2489 119.399 20.0307C118.97 19.8125 118.491 19.7109 118.011 19.736C116.142 19.736 114.829 21.1409 114.829 23.2131C114.829 25.2853 116.114 26.641 117.926 26.641C118.427 26.6627 118.923 26.5504 119.365 26.3158C119.807 26.0811 120.179 25.7327 120.441 25.3064V26.4584H121.6V19.9256H120.561ZM119.268 19.0335C119.364 19.0393 119.46 19.0254 119.55 18.9927C119.64 18.96 119.723 18.9091 119.792 18.8433C119.862 18.7775 119.918 18.6981 119.956 18.61C119.993 18.5219 120.013 18.427 120.013 18.3311C120.023 18.2268 120.011 18.1215 119.978 18.022C119.945 17.9225 119.892 17.831 119.821 17.7534C119.751 17.6757 119.665 17.6137 119.569 17.5713C119.473 17.5288 119.369 17.5069 119.265 17.5069C119.16 17.5069 119.056 17.5288 118.96 17.5713C118.864 17.6137 118.779 17.6757 118.708 17.7534C118.638 17.831 118.584 17.9225 118.551 18.022C118.518 18.1215 118.506 18.2268 118.517 18.3311C118.516 18.4276 118.536 18.5232 118.574 18.6118C118.613 18.7004 118.669 18.7801 118.739 18.846C118.81 18.9119 118.893 18.9626 118.984 18.9949C119.075 19.0271 119.172 19.0403 119.268 19.0335ZM116.781 19.0335C116.878 19.0403 116.974 19.0271 117.065 18.9949C117.156 18.9626 117.24 18.9119 117.31 18.846C117.381 18.7801 117.437 18.7004 117.475 18.6118C117.514 18.5232 117.533 18.4276 117.533 18.3311C117.544 18.1789 117.51 18.0268 117.433 17.8947C117.356 17.7626 117.242 17.6566 117.104 17.5907C116.967 17.5248 116.812 17.5019 116.661 17.5251C116.51 17.5483 116.37 17.6164 116.259 17.7207C116.147 17.8249 116.07 17.9603 116.036 18.1093C116.003 18.2583 116.015 18.4138 116.072 18.5556C116.128 18.6975 116.226 18.8189 116.353 18.9042C116.479 18.9895 116.629 19.0345 116.781 19.0335ZM110.459 25.5522C109.195 25.5522 108.352 24.6671 108.352 23.2412C108.352 21.8152 109.195 20.8739 110.459 20.8739C111.724 20.8739 112.567 21.7941 112.567 23.2131C112.6 23.5087 112.569 23.8078 112.478 24.0909C112.387 24.3739 112.237 24.6345 112.038 24.8554C111.839 25.0764 111.595 25.2527 111.323 25.3728C111.051 25.4929 110.757 25.554 110.459 25.5522ZM110.705 19.736C110.201 19.7139 109.7 19.8282 109.255 20.0667C108.81 20.3053 108.437 20.6594 108.177 21.0917L108.071 19.9327H107.06V29.3876H108.261V25.489C108.53 25.8699 108.892 26.1761 109.312 26.3788C109.733 26.5816 110.197 26.6742 110.663 26.648C112.518 26.648 113.838 25.2432 113.838 23.2061C113.838 21.169 112.546 19.736 110.705 19.736ZM103.042 19.736C102.6 19.7209 102.163 19.8378 101.788 20.0717C101.413 20.3057 101.115 20.6461 100.934 21.0496C100.758 20.6816 100.487 20.3668 100.15 20.1369C99.8131 19.907 99.4213 19.7702 99.0143 19.7403C98.6073 19.7103 98.1997 19.7883 97.8325 19.9664C97.4654 20.1445 97.1518 20.4164 96.9234 20.7545L96.832 19.9256H95.7362V26.4795H96.9374V22.4685C96.9231 22.2568 96.9521 22.0444 97.0227 21.8443C97.0932 21.6441 97.2039 21.4605 97.3479 21.3047C97.492 21.1489 97.6663 21.024 97.8602 20.9379C98.0541 20.8517 98.2636 20.8061 98.4758 20.8037C98.6835 20.794 98.8908 20.8306 99.0826 20.9108C99.2745 20.9909 99.4462 21.1127 99.5853 21.2673C99.7244 21.4218 99.8275 21.6053 99.8871 21.8046C99.9466 22.0038 99.9612 22.2138 99.9298 22.4193V26.4795H101.152V22.4825C101.135 22.2668 101.164 22.0499 101.236 21.8457C101.308 21.6415 101.421 21.4545 101.569 21.2966C101.717 21.1387 101.896 21.0133 102.095 20.9285C102.295 20.8436 102.509 20.8011 102.726 20.8037C103.568 20.8037 104.13 21.2954 104.13 22.4193V26.4795H105.367V22.1524C105.4 21.8347 105.364 21.5135 105.26 21.2114C105.156 20.9092 104.988 20.6334 104.766 20.4032C104.545 20.173 104.276 19.994 103.978 19.8788C103.68 19.7635 103.36 19.7148 103.042 19.736ZM87.7705 16.9262L91.086 22.5458V26.4584H92.3785V22.5458L95.6519 16.9262H94.247L92.9756 19.1459C92.3224 20.2769 91.7604 21.3095 91.7604 21.3095C91.7604 21.3095 91.2546 20.319 90.5733 19.1459L89.3018 16.9262H87.7705Z" fill="white"/>
</g>
<defs>
<clipPath id="clip0_34:4818">
<rect width="250.197" height="75" fill="white" transform="translate(0 0.77002)"/>
</clipPath>
</defs>
</svg>
