<svg xmlns="http://www.w3.org/2000/svg" xmlns:xlink="http://www.w3.org/1999/xlink" viewBox="0 0 226.77 226.77">
<defs><style>.a{fill:#fff;}.b{clip-path:url(#a);}</style>
<clipPath id="a">
<rect class="a" width="226.77" height="226.77"/></clipPath>
</defs>
<path class="a" d="M82.55,102.66,75.1,115.08v9H71.79v-8.93l-7.44-12.52H68s5.4,9.21,5.46,9.34c.05-.14,5.57-9.34,5.57-9.34Z"/>
<polygon class="a" points="98.82 105.45 93.33 105.45 93.33 124.11 90.03 124.11 90.03 105.45 84.51 105.45 84.51 102.66 98.82 102.66 98.82 105.45"/>
<polygon class="a" points="113.16 124.11 102.27 124.11 102.27 102.66 113.13 102.66 113.13 105.45 105.55 105.45 105.55 111.96 113.16 111.96 113.16 114.71 105.55 114.71 105.55 121.36 113.16 121.36 113.16 124.11"/>
<path class="a" d="M134.1,124.11h-4.27l-7.76-8.25-.53-.54-.54-.61v9.4h-3.31V102.66H121l0,9.43.74-.87c.26-.29.46-.53.61-.72l6.92-7.84h4l-9.51,10.56Z"/>
<path class="a" d="M153.3,124.11H149l-7.76-8.25-.53-.54c-.19-.21-.37-.41-.53-.61v9.4h-3.32V102.66h3.32l0,9.43.74-.87c.26-.29.46-.53.61-.72l6.92-7.84h4L143,113.22Z"/>
<rect class="a" x="156.12" y="102.66" width="3.32" height="21.45"/>
<polygon class="a" points="90 161.36 113.39 184.75 136.77 161.36 136.77 176.39 113.39 199.77 90 176.39 90 161.36"/>
<polygon class="a" points="136.77 65.41 113.39 42.02 90 65.41 90 50.39 113.39 27 136.77 50.39 136.77 65.41"/>
<polygon class="a" points="65.41 90 42.02 113.39 65.41 136.77 50.38 136.77 27 113.39 50.38 90 65.41 90"/>
<polygon class="a" points="161.36 136.77 184.75 113.39 161.36 90 176.39 90 199.77 113.39 176.39 136.77 161.36 136.77"/>
</svg>